<svg xmlns="http://www.w3.org/2000/svg" viewBox="0 0 1920 1920"><defs><style>.cls-1,.cls-10,.cls-3{fill:#256f64;}.cls-2{fill:#e1e6d0;}.cls-3{opacity:0.2;}.cls-4{fill:#deb38e;}.cls-5{fill:#cda47e;}.cls-6{fill:#b08a66;}.cls-7{fill:#9c7654;}.cls-8{fill:#dfb1a1;}.cls-9{fill:#fff;}.cls-10,.cls-18{opacity:0.1;}.cls-11{fill:#626f32;}.cls-12{fill:#d68e90;}.cls-13{fill:#3d432f;}.cls-14{fill:#58652c;}.cls-15,.cls-24{fill:#7f4c35;}.cls-16{opacity:0.48;}.cls-17,.cls-18,.cls-19{fill:#773826;}.cls-19,.cls-24{opacity:0.22;}.cls-20{fill:#6b6967;}.cls-21{fill:#425829;}.cls-22{fill:#647032;}.cls-23{fill:#292d1d;}</style></defs><g id="Layer_2" data-name="Layer 2"><circle class="cls-1" cx="482.44" cy="1218.61" r="111.51"/><path class="cls-2" d="M1396.62,1044.78c0,11.76-.45,23.37-1.25,34.92a479.31,479.31,0,0,1-162,325.4q-4.77,4.2-9.66,8.26-11.79,9.87-24.21,18.89-17.52,12.78-36.24,24-13.56,8.15-27.72,15.38c-2.4,1.21-4.79,2.43-7.19,3.61q-12.11,6-24.63,11.24c-12.07,5.07-24.38,9.7-36.9,13.77q-2.76.93-5.53,1.81a475.29,475.29,0,0,1-66.11,15.72q-14.61,2.4-29.53,3.86c-8.27.83-16.66,1.46-25.07,1.84q-11.53.57-23.16.56-19.47,0-38.5-1.53a475.4,475.4,0,0,1-144-34.43h0c-1.42-.6-2.85-1.19-4.24-1.81-4.59-2-9.18-4-13.7-6q-6.47-3-12.83-6.16c-1-.45-2-.94-3-1.46-1.88-.94-3.79-1.95-5.67-2.92A475,475,0,0,1,640,1435.59c-.31-.21-.59-.42-.9-.67a481.34,481.34,0,0,1-112.23-112.36q-13.58-19-25.22-39.3a479.4,479.4,0,0,1,59.61-559.1,481.51,481.51,0,0,1,50.43-48.41c1.25-1.08,2.51-2.08,3.79-3.09q15.18-12.37,31.37-23.48c6.4-4.38,12.94-8.62,19.55-12.66,8.45-5.21,17.07-10.19,25.91-14.85A470.31,470.31,0,0,1,748.91,596q18-6.82,36.73-12.14c6.85-1.94,13.73-3.75,20.69-5.39l2.68-.62c2.36-.56,4.73-1.08,7.13-1.6h0c3.55-.77,7.13-1.5,10.71-2.16a479.62,479.62,0,0,1,90.5-8.55c3.27,0,6.5,0,9.77.1q19.1.36,37.84,2.26c2.78.24,5.53.52,8.31.83,6.5.77,13,1.67,19.44,2.72a6.56,6.56,0,0,1,.87.14q20.82,3.29,41,8.41c5.35,1.29,10.64,2.75,15.89,4.28,3.1.87,6.16,1.77,9.18,2.75.21.07.39.1.56.17a10.2,10.2,0,0,1,1.25.42c1.64.52,3.31,1,4.94,1.6.73.21,1.46.45,2.23.69a477.27,477.27,0,0,1,91.25,41.43c3.83,2.22,7.59,4.52,11.34,6.92a472.27,472.27,0,0,1,64.45,48.23c96.37,85.66,157.89,209.54,160.84,347.82Q1396.61,1039.57,1396.62,1044.78Z"/><circle class="cls-3" cx="531.12" cy="755.55" r="113.24"/><circle class="cls-3" cx="1369.56" cy="1204.24" r="87.13"/><circle class="cls-3" cx="573.67" cy="1173.89" r="39.76"/><circle class="cls-1" cx="1602.79" cy="436.32" r="85.21"/><circle class="cls-3" cx="1319.46" cy="308.92" r="42.6"/><circle class="cls-3" cx="1611.84" cy="603.7" r="39.76"/><path class="cls-4" d="M520.36,672s0-36.58,29.6-51.08,85.11-38.1,116.63.09C666.59,621,543.44,658.37,520.36,672Z"/><path class="cls-5" d="M449.77,818.23s-32.22-59.06,26.11-114.61,206.67-129.41,305.19-43.41S449.77,818.23,449.77,818.23Z"/><path class="cls-6" d="M745.33,842.6C683,859.6,598,879.68,566.78,887v0l-12.18,2.82s-30.84-1.42-59.66-17.21v0c-23.57-12.9-45.76-35.39-48.69-74.53-6.47-87,140.75-175.93,273.15-163S823.12,821.39,745.33,842.6Z"/><path class="cls-7" d="M599.05,814.76,566.78,887v0l-12.18,2.82s-30.84-1.42-59.66-17.21v0c-48.74-117.14,60.71-182.45,60.71-182.45s16.23,16.87,17,30.22S599.05,814.76,599.05,814.76Z"/><path class="cls-8" d="M520.36,750.79S487.69,685.23,482.44,672,451.24,590,430.89,565.62s-53.41-104.79-53.41-104.79,7.63-23.4,0-36.63S357.64,384,344.92,377.4s-18.31-5.08-16.79,3.06l1.53,8.13s-8.65,5.6-6.1,10.18c0,0-11.2,3.56-8.14,13.22a10.59,10.59,0,0,0-7.63,11.2c.51,9.15.51,22.89,4.07,32.55s17.8,21.88,21.36,29,64.61,143.45,70.71,161.77,36.63,123.8,48.84,132.1S520.36,750.79,520.36,750.79Z"/><path class="cls-8" d="M838.87,761.82S834.8,589,826.66,524.93s-5.08-115,6.11-143.46-1.95-43.75-10.71-45.65c0,0,.79-11.45-11.42-12.21,0,0-5-12.59-12.21-9.92,0,0-1.91-16.41-13-8.4s-12.59,8-15.64,15.65-11.83,18.69-7.25,32.43,11.06,57.23,11.06,66.38-10,142.31-10,169.27-1.52,161.26-1.52,161.26S783.42,782,838.87,761.82Z"/><path class="cls-9" d="M819.55,924.77C810.39,948.18,800.07,1203,800.07,1203L555,1184.71s-10.72-107.62-24-186.39v0c-6.13-36.21-12.78-66.33-19.21-77.07-20.35-34.1-59-142.61-59-142.61,16.26-1.17,67.57-36,67.57-36,6.56,3.05,52.27,100,52.27,100s120.38-5,155.33-9h0a50.91,50.91,0,0,0,8.79-1.47c10.8-4.13,17.67-22.85,21.06-28.29s4.25-53.56,4.25-53.56a5,5,0,0,0,2,1.12l.41.14a7.37,7.37,0,0,0,.71.23,41.63,41.63,0,0,0,4.66,1,1.54,1.54,0,0,0,.42.07c7.36,1.14,18.58,1.83,29.83,2.54,18.56,1.17,37.19,2.46,38.68,6.15h0c0,.1.06.21.09.3C843,788.63,828.7,901.37,819.55,924.77Z"/><path class="cls-10" d="M566.68,918.57s-31.3,65.31-35.7,79.72c-6.13-36.21-12.78-66.33-19.21-77.07-20.35-34.1-59-142.61-59-142.61,16.26-1.17,67.57-36,67.57-36,0,8.15-37.91,36-37.9,61.2,0,19.8,5.85,30,18.95,55S566.68,918.57,566.68,918.57Z"/><path class="cls-10" d="M777.3,829.2c-10.48,18,.81,23.45-16,35C745,875.35,726.52,848.84,728,833.61h0a50.91,50.91,0,0,0,8.79-1.47c10.8-4.13,17.67-22.85,21.06-28.29s4.25-53.56,4.25-53.56a7.37,7.37,0,0,0,2,1.12l.41.14a3.47,3.47,0,0,0,.71.23,26.19,26.19,0,0,0,4.66,1,1.54,1.54,0,0,0,.42.07c7.36,1.14,18.58,1.83,29.83,2.54-19,6.15-16.41,22.77-22.77,24.47C768.86,782.12,787.79,811.17,777.3,829.2Z"/><path class="cls-10" d="M649,932.79S577.9,992,566.68,981.53s0-82.41,0-82.41l32.39-14.9c7.06,5.6,15.65,31.69,49.91,48.57Z"/><path class="cls-8" d="M770.66,882.33s-48.16,57.4-94.46,56.79a65,65,0,0,1-27.24-6.6c-30.16-14.32-49.16-47-49.89-48.3,0,0,0,0,0-.05s40.73-19.73,29-53.08c-5-14.27,5.94-26,20.09-34.64,18.9-11.58,43.49-17.84,43.49-17.84.32.66.59,1.29.86,1.9,4.13,9.32,5.62,14.72,8.75,21.18.54,1.12,1.12,2.27,1.78,3.47,4.67,8.65,3.43,43.22,25,56.17A306.53,306.53,0,0,0,770.66,882.33Z"/><path class="cls-11" d="M812.82,1232.11q-2.37,1.22-4.75,2.39-8,3.93-16.24,7.41-13.7,5.79-28,10.28a312.36,312.36,0,0,1-43.62,10.37q-9.63,1.59-19.48,2.55c-5.46.55-11,1-16.54,1.22-5.07.25-10.17.36-15.28.36q-12.84,0-25.41-1a313.35,313.35,0,0,1-95-22.71h0c-.94-.39-1.88-.78-2.8-1.2-3-1.28-6.06-2.61-9-4-2.69-93.11-4-186.21-4-199.06a39.55,39.55,0,0,1,1.88-11.29c.23-.73.46-1.49.71-2.27,6.91-20.37,25.26-45,26.92-68.86,1.3-18.77,9.45-50.89,15.21-71.8,3.3-12,5.83-20.3,5.83-20.3L599,870.85s-.64,3.3-1.67,8.93c-.64,3.53-1.45,8-2.36,13.12-2.57,14.57-5.92,34.53-8.68,54.11-1.08,7.68-2.06,15.3-2.89,22.51-2.41,21.57-3.26,39.44-.25,44.26,7.3,11.7,117,33.94,153-5.48,7.87-8.61,12.18-20.2,11.15-35.45-.3-4.18-5.14-32.31-9.91-59.25-.94-5.35-1.89-10.67-2.8-15.72-1.36-7.64-2.62-14.75-3.67-20.61-1.73-9.63-2.87-15.94-2.87-15.94L732.6,846l4.16-13.9a16.52,16.52,0,0,1,1.49,2.18.23.23,0,0,0,.09.11,89.33,89.33,0,0,1,4.52,8.84c3.76,8.24,8.31,19.82,12.9,32.63,1.9,5.3,3.83,10.81,5.69,16.36,3.26,9.68,6.38,19.5,9.08,28.64,2.8,9.43,5.17,18.15,6.77,25.24,7.64,33.57,31.92,77.55,30.68,98.71,0,.18,0,.39,0,.62C807.48,1058.78,811.88,1142.49,812.82,1232.11Z"/><path class="cls-12" d="M649,932.52c-30.16-14.32-49.16-47-49.89-48.3,0,0,0,0,0-.05s40.73-19.73,29-53.08c-5-14.27,5.94-26,20.09-34.64,18.92-7.45,35.79-13.15,44.35-15.94,3.76-1.22,5.94-1.9,5.94-1.9a166.18,166.18,0,0,1,2.81,23.08C702.57,826.2,678.13,911.62,649,932.52Z"/><path class="cls-8" d="M698.42,778.62c2.46,13-13.58,45.68-34.57,59.87s-55.56-13-55.56-13-37-42-40.87-54.95,8.78-19.75,3.84-42-6.8-32.11,4.94-32.11,21.6-16,35.18-22.83,41.36,8,53.08,20.37c4.8,5.05,11,18,16.7,32.35,14.26-3.19,19.27,15.36,21.58,26.91,1.32,6.61-2.66,12.33-6.64,16.22C697.23,773.46,698,776.6,698.42,778.62Z"/><path class="cls-12" d="M584.9,795.46s-11.27-21.79,0-38.17-9.26-31.76-2.5-45.65,29-38,29-38L555,713.81l6.51,48,17.34,44.11Z"/><path class="cls-13" d="M607.64,658.66a121.77,121.77,0,0,0-52,31.48C538.5,708,523.86,734.28,540.39,765c30.87,57.41,43.21,42.59,30.87,57.41s-44.45,54.94-32.72,85.8,10.49,41.36,1.23,50-34.38,47.54-7,67.91,36.12,23.45,33.91,42.59,23.82-21.61,0-46.91,4.58-27.78,15.69-50-2.47-41.35-2.47-57.4,35.18-34.57,40.74-40.75,20.13-23.8,9.14-35.66c0,0-17.41-6.31-58.34-59.4,0,0-4.51-15.43,1.67-24.08s-5.56-37-1.24-47.53,8-5.55,17.29-9.26,20.61-21.24,34-21.6,45.68,16,47.53,27.11,4.46,34.62,11.11,29.06,14.21.55,15.69,3.88,11.76,20.54-1.34,33.33c0,0,1.32,22.23,5.12,32.14s-12.68,56.58,21.89,71.4-.28,36.42-12.48,46.91-4.8,41.7,10,46.16,25.31,44,6.17,55.7,23.46,41.35,34.57,29.63c0,0-17.9-14.2,0-32.72s22.84-42,3.71-59.26,6.79-29,8.64-49.39,3.7-35-28.4-67.5,1.24-47.93-14.19-68.3,4.32-77.49-46.3-102.33C645,652.41,630,651.77,607.64,658.66Z"/><path class="cls-14" d="M753.1,1058c-26.26,4.12-101,14.85-139.51,10-5-.63-9.48,2.78-9.48,7.19v38a7,7,0,0,0,3.1,5.65L649,1148.31c22.68,16,55.51,14.65,76.4-3l37.19-31.51a6.79,6.79,0,0,0,2.52-5.53l-2.21-43.43C762.7,1060.39,758.09,1057.17,753.1,1058Z"/><path class="cls-13" d="M741.17,740.44c-1.66.88-8.41,23.5-1,29.7s7.88,20.24,5.08,28.25,8.76,7.31,11.56-2.85.2-15.77-9.26-27.33S741.17,740.44,741.17,740.44Z"/><path class="cls-13" d="M577.52,1085.8s22-7.2,19-25.7c-1.8-11.23-7.78-20.24-12.2-25.59a1.49,1.49,0,0,0-2.55,1.44c2.52,7.64,5.57,19.74,2.11,25.94C577.3,1073.7,566.15,1085.46,577.52,1085.8Z"/><path class="cls-15" d="M1376.76,1181.74a478.12,478.12,0,0,1-99,179l-44.41,44.41c-1.36,1.2-2.72,2.38-4.1,3.55q-2.76,2.38-5.56,4.71c-1.76,1.47-3.52,2.93-5.3,4.36q-9.27,7.53-18.91,14.53h0q-3,2.24-6.14,4.4-14.64,10.33-30.09,19.59-13.56,8.15-27.72,15.38c-2.4,1.21-4.79,2.43-7.19,3.61q-12.11,6-24.63,11.24c-12.07,5.07-24.38,9.7-36.9,13.77q-2.76.93-5.53,1.81a475.29,475.29,0,0,1-66.11,15.72q-14.61,2.4-29.53,3.86c-8.27.83-16.66,1.46-25.07,1.84q-11.53.57-23.16.56-19.47,0-38.5-1.53a475.4,475.4,0,0,1-144-34.43h0c-1.42-.6-2.85-1.19-4.24-1.81-4.59-2-9.18-4-13.7-6q-6.47-3-12.83-6.16c-1-.45-2-.94-3-1.46-1.88-.94-3.79-1.95-5.67-2.92A475,475,0,0,1,640,1435.59c-.31-.21-.59-.42-.9-.67a481.34,481.34,0,0,1-112.23-112.36q-13.58-19-25.22-39.3A475.23,475.23,0,0,1,458,1181.74Z"/><g class="cls-16"><path class="cls-17" d="M1214.41,1348.49l.52-.62.06-.06c1.87-2.24,3.62-4.4,5.28-6.5a179.64,179.64,0,0,0,13.81-19.83c13.39-22.7,10.52-34.48,5.24-40.55a20.38,20.38,0,0,0-10.41-6.19c-114.57-4.79-179,0-179,0a168.79,168.79,0,0,0-24.39,6.5c-33.39,11.55-61.88,32.17-80.57,48.12-5.8,5-10.65,9.46-14.36,13-5.45,5.29-8.43,8.61-8.43,8.61Z"/><path class="cls-17" d="M1239.32,1280.93a20.38,20.38,0,0,0-10.41-6.19c-114.57-4.79-179,0-179,0a168.79,168.79,0,0,0-24.39,6.5C1125.22,1278.66,1201.66,1279.91,1239.32,1280.93Z"/><path class="cls-18" d="M922.14,1351.06s150.72-5.3,292.21-2.57c0,0,18-19.48,20.31-27,0,0-150.81-5.53-280.46,1.6C954.2,1323.1,931.13,1337.36,922.14,1351.06Z"/><path class="cls-17" d="M1064.47,1355.64c91.16-.87,164.59-2.64,165.71-4s-69-2.69-159.72-1.89c-92.65.81-171.86,3.54-173.33,4.94S971.38,1356.52,1064.47,1355.64Z"/><path class="cls-17" d="M1230,1351.63s-134-5.14-332.82,3c0,0,14.56-10.51,17-11.4s208.83-7.65,319.42-1.29C1233.63,1342,1233.76,1348.8,1230,1351.63Z"/><path class="cls-17" d="M962,1378.5c-9,2.21-47.19,15.45-63.34,20.59-16.31,5.18-27.51,18-62.38,20.27-35.2,2.28-60.16-1.56-73,1.26s23.9.52,51.47,3.34,80.94,6.71,116.44,1.74c35.05-4.92,73.25-31.25,73.25-31.25s41.89-27.18,44.5-29.17,8.24-14.22,8.24-14.22l-17.61.15Z"/><path class="cls-17" d="M1249.43,1389l-5.15,5.15a157.33,157.33,0,0,1-16.67.27c-16.51-.61-35.59-1.13-43.94-3.62a10.45,10.45,0,0,1-3.37-1.54c-1.28-1-2.94-2.37-5-3.85a58.17,58.17,0,0,0-26.89-10.62c-10.55-1.36-31.52-7.4-46-11.81-8.87-2.7-15.28-4.79-15.28-4.79l1.26-2.81,2.07-4.62h0c.54.14,7.11,1.88,16.06,4.39,15.6,4.37,38.45,11.07,49.11,15.67,14.77,6.37,22.5,11.79,35.42,14.22,2,.38,4.23.69,6.6.92,5.51.53,12.69.92,20.17,1.27C1229.39,1387.79,1241.57,1388.25,1249.43,1389Z"/><path class="cls-17" d="M1048,1400.6l-.32,31-21,7.5s-48.72-11-47.26-14.19-6.15-8.23-6.15-8.23l.62-8.5,70.09-14.22Z"/><path class="cls-17" d="M1039.56,1351.22s-6.86,4.24-27.25,8.47c-20.58,4.28-71.87,20.73-82.16,24s-7.33,3.8-37.72,5.54c-30.64,1.77-30.19,8.1-58.35,10.57-28.39,2.5-43,9.85-61.26,12.77s-.45,2.65,14,.5,20.26-.32,43.91-2.78c23.48-2.45,48.47-7.67,67.81-14.47,19.13-6.72,63.38-17.35,63.38-17.35s62.93-15.51,70.9-20.29,12.89-7,12.89-7Z"/><path class="cls-17" d="M1261.48,1377l-3.65,3.65c-1.2.3-2.43.59-3.67.87-6.8,1.51-19.48,3.68-36.26,5.77-10.06,1.27-21.59,2.5-34.23,3.56-4.51.37-9.16.73-13.94,1l-1.9.13c-30.28,2-49.5-4.69-60.14-9-4.07-1.65-6.88-3-8.57-3.32,0,0-2.89-1.84-6-4.29-6.36-4.94-13.77-12.35-.37-11.95a57.08,57.08,0,0,1,11.67,1.62c15,3.58,27.84,12.07,34.89,15.12,7.48,3.24,11.89,5.46,36,5.27,4.44,0,9.54-.14,15.45-.35h.38C1217,1384.12,1245.31,1379.71,1261.48,1377Z"/><path class="cls-17" d="M1127.68,1426.58c5.57-1,9.18-2.82,8.8-4.41-.32-2.85-13.39-11.91-13.39-11.91l14-1.87s52.35,6.24,57.37,4.66,15.54-.23,19.58-2.26-5.78-4.39-22.9-11-27.15-9.81-27.15-9.81L1096.21,1373s-22.21,16.77-26.76,18.19-29.74,14.72-31.64,16,6.3,11.81,10,12.59,22.75,6.43,31.54,5.88,14.73,6,20.54,4.85S1127.68,1426.58,1127.68,1426.58Z"/><path class="cls-17" d="M1081.91,1432s-26.58,8.27-14.93,16.92,44.13,13.3,57.08,11.58-10.83,3.11-23.21,3.38a167.27,167.27,0,0,1-47.07-5.48c-18.31-4.9-23.15-5.52-21.13-10.34s-14.34-6.14-13.42-10.7,59.92-11.72,59.92-11.72Z"/><path class="cls-17" d="M974,1408.14s-86.46,35.09-89.21,37.84,4.64,13.54,12.72,13.93,37.84-6.79,49.62-12.8,36.75-19,40.36-22.38-3.54-8.13-1.11-11.28l2.41-3.14S976.76,1411.87,974,1408.14Z"/><path class="cls-17" d="M980.25,1390.39c-8.2,1.69-12.43,15.38-6.3,17.74a56,56,0,0,0,25.29,4.08c17.43-1.33,10.8-1.22,10.8-1.22l38-10.38s-20.3-10.42-7.71-21.78a241.38,241.38,0,0,0,23.21-24.67S991.9,1388,980.25,1390.39Z"/><path class="cls-17" d="M1057,1352.18s-9.83,13.34-19.22,20.31-22,23.26-7.24,26.44,38.56,7.06,54.27,4.11,9.59-2.5,8-4.5,24.32-19.1,18.05-26.39-20.37-21.39-20.37-21.39l-33.33.3Z"/><path class="cls-17" d="M1031.11,1436.42c-.49.54-8.7,14.68-17.49,16.61s-8.4,2.09-20.85,1.45-17.75,0-18.62-2.87-.17-11.11,3.94-14.2,9.25-12.68,9.25-12.68,10.83,7.53,23.42,9.07S1031.11,1436.42,1031.11,1436.42Z"/><path class="cls-17" d="M1081.91,1432c.42.86,15.21,12.19,22.71,14.16s24,6.24,32.89,5.89,13.37.45,12.5-6.09-14.55-20.65-15.31-21.67c0,0-29.93,3.81-46.71.81s-19.25-5.38-19.25-5.38Z"/><path class="cls-17" d="M1047.76,1397c.6-.54-3.63,12.62,21,22.71,24.77,10.15-8.57,14.7-18.79,14.49s-33.34-.33-39.84-3.73,0-19.48,0-19.48S1044,1400.43,1047.76,1397Z"/><path class="cls-17" d="M1229.23,1408.65q-2.76,2.38-5.56,4.71c-1.76,1.47-3.52,2.93-5.3,4.36-11.5,1.07-19.11,1.19-29.79,0-18.39-2.08-48.31-7.79-51.5-9.31h0c-3.19-1.53-8.37-11-8.37-11,3.35.43,58.08,11.2,85.45,11.44,1.37,0,2.68,0,3.9,0C1222,1408.62,1225.74,1408.59,1229.23,1408.65Z"/><path class="cls-17" d="M1199.45,1432.25q-3,2.24-6.14,4.4c-15.59-.72-34.74-.45-39.7-3.87-4.27-2.94-11.85-5.94-18-9a41.8,41.8,0,0,1-6.68-4c-5.73-4.43-27.51-8.76-24-8.25,7.55,1.07,18.09-1.31,18.09-1.31h0l0,0c.82.42,11.95,6.17,21.66,8.14,10.09,2,8.59,5.17,25.74,6.12s14.43,5.72,24.07,7C1196.22,1431.75,1197.83,1432,1199.45,1432.25Z"/><path class="cls-17" d="M1134.41,1313.33c10.45,2.15,30.14,4.14,60.49-.65,3.91-.62,6.94.47,4,1.43-7.71,2.49-20.74,5.34-40.35,5.57-19.08.23-27.28-2.38-30.76-4.84C1126.4,1313.88,1131.5,1312.73,1134.41,1313.33Z"/><path class="cls-17" d="M1013.78,1313.89c10.58,2.19,30.67,4.2,62.19-.66,4.07-.63,7.1.47,4,1.45-8.1,2.52-21.69,5.42-41.85,5.65-19.63.24-27.87-2.41-31.27-4.91C1005.5,1314.45,1010.84,1313.28,1013.78,1313.89Z"/><path class="cls-17" d="M1160,1326.82c8.69.17,22.82-.47,36.31-5.1,1.74-.6,4.74-.33,3.93.35-2.09,1.77-7,4.13-18.76,5.79-11.4,1.61-19.18,1.05-23.94.19C1155.7,1327.71,1157.59,1326.77,1160,1326.82Z"/><path class="cls-17" d="M989.49,1322.06c2.07,2.23,8.55,5.16,28.39,4.76,2.57,0,2.6.9,0,1.24-6.64.9-16.15,1.56-25.36,0-8.93-1.49-9.41-3.82-7.94-5.65C985.18,1321.72,988.92,1321.44,989.49,1322.06Z"/><path class="cls-17" d="M1087,1309.13c9.67-2.17,31.44-6.07,43.63-.39,1.08.5,3.81,0,4.29-.84,1.73-2.91,1.75-7.64-16.66-7.58-20.33.06-30,5-33.84,8C1083.35,1309.05,1085,1309.59,1087,1309.13Z"/><path class="cls-19" d="M1065.34,1303c3.43-3.52-4.2-6.34-17-6.3s-26.24,2.92-29.8,6.46,4.09,6.41,17.11,6.36S1061.89,1306.53,1065.34,1303Z"/><path class="cls-19" d="M1211.08,1302.48c3-3.46-4.59-6.23-17-6.19s-25.13,2.87-28.28,6.35,4.5,6.31,17.09,6.25S1208.05,1306,1211.08,1302.48Z"/></g><path class="cls-9" d="M1274.21,1011.73v2.1a.74.74,0,0,0,0,.21q0,11.3-.19,21.93c-.39,25.29-1.4,47.93-2.86,68.18-5.82,80.33-18.87,123.08-29.5,145.34-8.84,18.49-16,22.83-16,22.83-119.2,17.64-177.81,0-177.81,0-6.63-5.62-12.35-13.62-17.28-23.36-20.68-40.85-27.45-112.2-29.45-166-.6-16.49-.78-31.34-.76-43.14,0-17.29.46-28.09.46-28.09Z"/><path class="cls-5" d="M1241.66,1249.49c-8.84,18.49-16,22.83-16,22.83-119.2,17.64-177.81,0-177.81,0-6.63-5.62-12.35-13.62-17.28-23.36C1125.42,1258.11,1202.75,1253.34,1241.66,1249.49Z"/><path class="cls-10" d="M1000.81,1011.73s135.19,13.25,273.34,0c0,0,1.61,66.23-2.41,92.32,0,0-152.12,22.07-268.11,0C1003.63,1104.05,996,1056.68,1000.81,1011.73Z"/><path class="cls-20" d="M1136.84,992.43c85.78,0,155.32,3.65,155.32,8.16s-69.09,11.14-154.88,11.14-155.77-6.63-155.77-11.14S1051.05,992.43,1136.84,992.43Z"/><path class="cls-5" d="M1292,1000.65s-133.36,21.24-310.44,0c0,0,3.2,34,4.6,36.86s188.77,20.3,301.56-4.24C1287.69,1033.25,1293.36,1010.12,1292,1000.65Z"/><path class="cls-21" d="M1062.49,921.83c-6.19-6.68-28.59-46.77-38.34-62s-8-53.82-36.43-59-53.49,7.58-61.86-.21,21-2.73,47.41-12.52,76.49-24.23,103.41-11.15,38.61,92.69,38.61,92.69,14.81,85.26,15.5,91.63-4.88,46.53-4.88,46.53h-16.38Z"/><path class="cls-21" d="M1157.11,1007.8s56.64-43.69,79-68.45,34.55-44.87,52.29-50.94,50.18-8.49,59.25-15.57-5-16.18-24.11-13-41.43,6.1-49.09,18.69-24,40.33-42,48.12-72,56.6-72,56.6Z"/><path class="cls-21" d="M1160.41,848.43,1185.87,753l-12.74-21.43S1120.34,767.42,1119,777s-12.55,25.38-12.55,25.38l-6.8,26.07,51.48,41.21Z"/><path class="cls-22" d="M1109.53,1007.8s-2.6-13.8-17.76-27-47.06-64.21-53.33-74.29-3.14-11.68-28.75-15.92-19.35-23.88-41.83-30.29-28.23-28.14-41.3-36.09,2.1-7.95,12.55-2.16,17.25,0,35.54,6.37,35.56,21.22,46.53,41.39,41.3,52,41.3,52,43.91,47.76,47,63.14,5.76,22.82,5.76,22.82Z"/><path class="cls-22" d="M1190.05,912.86c6.79-4.33,37.64-49.39,74.75-42.5s64.3,21.76,74.25,30.3,17.24,22.23,14.63,21.45S1316,894.28,1281,891.63s-41.3,5.31-52.8,18-38.68,53.6-58,56.26S1190.05,912.86,1190.05,912.86Z"/><path class="cls-21" d="M1254.87,763.88a11.37,11.37,0,0,1,4.65,13.08c-2.55,8.85-21.9,37.69-21.9,37.69l11.5,5.15s53.85-22.17,57.35-17.46,14.46-.08,16.73,6.11-8.84,14.15-30.21,36.08-33.46,32.55-33.46,32.55l-77.83,57.37s-6.49-53-9.5-57.35-14.9-44.92-15.59-48.69,15.63-36.79,19.66-39.38,26-20.85,33.54-19.66,18.3-19.23,22.66-15.92S1254.87,763.88,1254.87,763.88Z"/><path class="cls-21" d="M1217.24,749.9s-17.44-23.48,0-50,50.18-42.12,60.59-37.87-7.44-8.48-18.4-8.48-26.26,3.54-46.52,19.1-25.09,17.69-27.18,31.84S1167.9,723.6,1165,737.19s44.62,32.22,44.62,32.22Z"/><path class="cls-22" d="M1099.6,828.41s-46-101.36-46-109.28,15.69-39.79,23-41.4,27.19,17.52,32.46,34.5S1125.6,766.89,1126,777s-10.11,24.95-10.63,34.5l-.53,9.55S1105.36,816.77,1099.6,828.41Z"/><path class="cls-21" d="M1089.73,883.45c-5.94-5,2.29-47.45,9.85-55s17.22-15.85,26.31-13.8c14.64,3.25,8.72,3.25,8.72,3.25l25.78,30.5s-27.53,33.69-25.78,69.38,0,79.55,0,79.55S1098.22,890.53,1089.73,883.45Z"/><path class="cls-22" d="M1126.79,1004.09s2.61-43.52,0-65.8,0-73.23,16.23-83.84,41.3-23.88,53.32-15.39,6.8,7.42,3.66,13.8,6.79,60-5.23,83.83-37.64,71.11-37.64,71.11h-31.19Z"/><path class="cls-22" d="M1174.89,739.29c0-1.59,4.17-43.28-2.09-48.45s-5.76-5.67-17.31-3-15.68,1.08-18.82,9.55-9.41,32.91-8.36,41.92-2.45,37.67-2.45,37.67,16-23.33,28.59-28.65S1174.89,739.29,1174.89,739.29Z"/><path class="cls-22" d="M1217.24,749.9c1.08-2.65,23.52-37.67,31.88-44s26.66-20.12,34.51-19.62,12.55-2.16,6.79,17.49-29.4,63.68-30.9,66.86c0,0-24.52-10.08-42.28,0s-22,17.51-22,17.51Z"/><path class="cls-22" d="M1157.11,859.79c.09,1.68,7.32-39.26,38.16-71.64s4.19-44.36-5.22-43.15-30.3,2.83-39,13.44S1134.65,818,1134.65,818,1156.59,849.13,1157.11,859.79Z"/><path class="cls-22" d="M1232.39,855c3.66-1.59,69.53-41.93,93.06-40.33s40.26-11.67,54.37-3.72,21.43,17.48,21.43,17.48-8.88-22.29-39.73-32.37-38.16-15.39-57-8-51.23,26.76-55.42,31.69S1232.39,855,1232.39,855Z"/><path class="cls-22" d="M1221.93,811.46c-3.69,1.75,19.93-12.8,28.76-26.82s24-28,32.94-41.19,33.45-10.52,49.66-16.9,28.75,1.63,40.78,5.06,29.28,26.69,20.39,21.43-31.89-22.21-42.35-21.43-21.44,8.92-31.38,13.35-11.1,19-27.77,22.85-17.71,13.41-28.69,20.3-26.66,26.54-26.66,26.54S1229.78,807.75,1221.93,811.46Z"/><path class="cls-23" d="M1166.15,1134.45c12.1-7.71,33.08-15,58.73,1.3a3.73,3.73,0,0,0,5.16-5.11c-5.46-8.6-15.8-18.32-34.77-18.76-18.39-.43-28.67,8.78-34.25,17.42A3.72,3.72,0,0,0,1166.15,1134.45Z"/><path class="cls-23" d="M1050.8,1134.45c12.1-7.71,33.07-15,58.73,1.3a3.72,3.72,0,0,0,5.15-5.11c-5.45-8.6-15.79-18.32-34.76-18.76-18.39-.43-28.67,8.78-34.25,17.42A3.72,3.72,0,0,0,1050.8,1134.45Z"/><path class="cls-20" d="M1203,1087.14c8.61-.78,21.86,1.12,31.11,16.93a2.25,2.25,0,0,0,4.18-1.32c-.55-6.11-3.41-14.18-13.45-19.66-9.73-5.31-17.79-3.21-23.16-.13A2.24,2.24,0,0,0,1203,1087.14Z"/><path class="cls-20" d="M1035.65,1106.9c4-7.64,12.9-17.68,31.19-16.77a2.24,2.24,0,0,0,1.19-4.21c-5.42-2.89-13.73-4.92-23.82.49-9.77,5.24-12.43,13.12-12.79,19.31A2.25,2.25,0,0,0,1035.65,1106.9Z"/><path class="cls-23" d="M1116.36,1149.83c7.35,7.47,24.93,20.91,42,.76,1.5-1.78,3.69.06,3.43,2.89-.93,10.21-5.19,27-23.14,27-19.75,0-24.47-17.39-25.55-27.52C1112.78,1150.18,1114.83,1148.27,1116.36,1149.83Z"/><circle class="cls-24" cx="1067.41" cy="1171.64" r="22.37"/><circle class="cls-24" cx="1209.73" cy="1171.64" r="22.37"/></g></svg>