<svg xmlns="http://www.w3.org/2000/svg" viewBox="0 0 1920 1920"><defs><style>.cls-1{fill:#e1e6d0;}.cls-10,.cls-2,.cls-3{fill:#256f64;}.cls-2{opacity:0.2;}.cls-4{fill:#dfb1a1;}.cls-5{fill:#deb38e;}.cls-6{fill:#cda47e;}.cls-7{fill:#b08a66;}.cls-8{fill:#d68e90;}.cls-9{fill:#fff;}.cls-10{opacity:0.1;}.cls-11{fill:#626f32;}.cls-12{fill:#9c7654;}.cls-13{fill:#58652c;}.cls-14{fill:#3d432f;}.cls-15{fill:#d0cfce;}.cls-16{fill:#6b6967;}.cls-17{fill:#425829;}.cls-18{fill:#647032;}.cls-19{fill:#3e4430;}</style></defs><g id="Layer_2" data-name="Layer 2"><path class="cls-1" d="M1419.66,1106.49c0,11.76-.45,23.37-1.25,34.92a477.69,477.69,0,0,1-171.7,333.66q-11.79,9.86-24.2,18.89-17.54,12.78-36.24,24c-11.34,6.78-23,13.15-34.92,19q-12.11,6-24.62,11.23-20.77,8.77-42.43,15.58a472.93,472.93,0,0,1-66.12,15.72q-14.59,2.4-29.52,3.87c-8.28.83-16.66,1.46-25.08,1.84-7.68.38-15.4.55-23.16.55q-19.45,0-38.5-1.53A475,475,0,0,1,758,1549.77h0c-1.43-.59-2.85-1.18-4.24-1.8q-13.47-5.7-26.54-12.21c-1-.45-1.95-.94-3-1.46-1.87-.94-3.79-2-5.66-2.92A474.36,474.36,0,0,1,663,1497.29a10.3,10.3,0,0,1-.9-.66,481.39,481.39,0,0,1-112.23-112.37q-13.56-19-25.21-39.29a476.86,476.86,0,0,1-63.47-238.48c0-148.47,67.5-281.14,173.51-369,1.25-1.08,2.5-2.09,3.79-3.09A477,477,0,0,1,772,657.75q18.06-6.84,36.73-12.14,10.27-2.93,20.69-5.39l2.68-.62c5.91-1.4,11.9-2.65,17.88-3.76a478.69,478.69,0,0,1,90.49-8.56q24.11,0,47.61,2.37c2.78.24,5.53.52,8.31.83,6.51.77,13,1.67,19.44,2.72a8.29,8.29,0,0,1,.87.13q20.82,3.3,41,8.42c5.36,1.29,10.64,2.75,15.9,4.28,3.09.87,6.15,1.77,9.18,2.75a14.7,14.7,0,0,1,1.81.59,477.63,477.63,0,0,1,174.2,98.87C1357.48,836.06,1419.66,964,1419.66,1106.49Z"/><circle class="cls-2" cx="735.17" cy="1218.61" r="165.57"/><circle class="cls-3" cx="1353.04" cy="942.55" r="85.02"/><path class="cls-3" d="M1084.3,1563.75a472.93,472.93,0,0,1-66.12,15.72q-14.59,2.4-29.52,3.87c-8.28.83-16.66,1.46-25.08,1.84-7.68.38-15.4.55-23.16.55q-19.45,0-38.5-1.53A475,475,0,0,1,758,1549.77h0c-1.43-.59-2.85-1.18-4.24-1.8q-13.47-5.7-26.54-12.21c-1-.45-1.95-.94-3-1.46-1.87-.94-3.79-2-5.66-2.92A474.36,474.36,0,0,1,663,1497.29a10.3,10.3,0,0,1-.9-.66,481.39,481.39,0,0,1-112.23-112.37,302,302,0,0,1,92.44-73.34c149-76.72,332.06-18.12,408.78,130.87A302.2,302.2,0,0,1,1084.3,1563.75Z"/><circle class="cls-2" cx="644.78" cy="790.73" r="104.79"/><path class="cls-4" d="M1259,1185.3s0,6-.14,15.13v0c-.34,22.16-1.53,63.12-5.49,85-3.24,17.77-4.9,112.33-6.61,189.64q-11.79,9.86-24.2,18.89-17.54,12.78-36.24,24c-11.34,6.78-23,13.15-34.92,19V1366.56c0-10.64-.87-45.21-1.84-81.34v-.11c-.46-17.77-1-35.92-1.39-51.82-.07-1.39-.11-2.78-.14-4.14-.11-3.09-.18-6.05-.25-8.9-.62-20.66-1-35-1-35Z"/><path class="cls-4" d="M822.45,1148.85c-.21,11-4.83,32.21-10.08,53.07-2.86,11.24-5.85,22.37-8.49,31.72-4,14.54-7.13,24.83-7.13,24.83l-5.77,22L724.2,1534.3c-1.87-.94-3.79-2-5.66-2.92A474.36,474.36,0,0,1,663,1497.29a10.3,10.3,0,0,1-.9-.66c1.77-80,37.49-182.55,47.65-210.27,4.69-12.79,7.89-45.56,10.12-78.49,1.21-17.77,2.15-35.58,2.88-50.39l.14-2.75c.39-7.58.7-14.26,1-19.58.31-6.26.59-10.68.84-12.52l1,.17,12.9,2.12c14.09,2.4,36.35,6.23,54.22,9.74,7.41,1.46,14,2.89,19.09,4.07a56.42,56.42,0,0,1,8.77,2.61C822,1142,822.59,1144.68,822.45,1148.85Z"/><path class="cls-5" d="M750.49,540s0-55.44,44.86-77.42,129-57.75,176.78.14C972.13,462.68,785.48,519.35,750.49,540Z"/><path class="cls-6" d="M643.5,761.63s-48.84-89.5,39.58-173.71,313.23-196.13,462.56-65.78S643.5,761.63,643.5,761.63Z"/><path class="cls-7" d="M1091.46,798.57c-94.49,25.77-223.27,56.2-270.61,67.26v0l-18.46,4.28S755.64,868,712,844.06v0c-35.71-19.54-69.34-53.63-73.8-113-9.8-131.91,213.33-266.64,414-247S1209.36,766.43,1091.46,798.57Z"/><path class="cls-8" d="M803,1175.07s-24.92,39.3-83.11,32.8l4.85-85.25,96,18.71Z"/><path class="cls-9" d="M1276.72,1193.74s-66.43,28-126.31,26.2l-35.57,134.72s-211.82,126.75-294.15-.48l-28.6-205.35s-25.24-1-50.28-7.74l-.52-.11c-16-4.34-31.83-11-40.91-21.16,0,0,15-236.72,78.59-236.72s82.33-26.79,82.33-26.79l247-5s91.67,17.75,125.35,73S1276.72,1193.74,1276.72,1193.74Z"/><path class="cls-10" d="M1213.37,1208.59s-27.63-5.51-35.84-86,1.52-156.2,1.52-156.2l-59,257.1,30.38-3.59Z"/><path class="cls-10" d="M945.41,934.86s-67.09,25.92-84.1,10-15.6-76.11-15.6-76.11l15.59-12.45Z"/><path class="cls-11" d="M1191.27,883.84v0s-4.93,29.25-12.24,82.63v.1l0,0v.17c-7.06,51.72-16.28,126.11-25.29,218.48q-1.67,16.9-3.3,34.64a107.29,107.29,0,0,1-2.29,13.35c-3.31,14.4-9.33,33.32-15.24,53,0,0,0,.07,0,.1-4.73,15.72-9.32,32-12.38,46.92,0,0,0,.1,0,.14-2.54,12.21-4,23.58-3.68,33.07,1,30,6.32,129.52,10,181.61a475.52,475.52,0,0,1-108.55,31.3q-14.59,2.4-29.52,3.87c-27.89.31-57.56.59-86.74.86A475,475,0,0,1,758,1549.77h0q-15.65-6.46-30.78-14c19.82-60.2,51.26-155.18,57-169.2,3.51-8.69,5.63-45.24,6.85-86.07,1-32.49,1.35-67.68,1.39-93.66.1-19.55-.07-33.87-.28-38-.1-1.74.14-6.26.66-13,0-.38,0-.8.07-1.22.73-9.32,1.95-22.53,3.41-38.15.21-1.84.38-3.72.56-5.63,6.71-68,18.43-175.29,22.46-212.12.84-7.72,1.36-12.31,1.43-12.86v0h.17l32-2.82,1.7-.13,12.66-1.12,2.54-.21s-.1.84-.24,2.37-.42,3.82-.7,6.75c-1.46,13.84-4.35,42-7.41,74.25-5.11,53.63-10.74,118.59-11.09,148.19-.14,8.8.21,14.46,1.18,15.79.87,1.18,4.49,2.64,10.26,4.31,40.45,11.55,186.2,31.82,225.54,22,5.88-1.46,11.16-7.2,15.93-16.1a101.46,101.46,0,0,0,5.53-12.14c5.14-13.14,9.6-30,13.42-48.65,4.42-21.35,8-45.14,11-68.55,8-64.37,10.92-126.17,11-128.19v0S1173.19,857.1,1191.27,883.84Z"/><path class="cls-4" d="M1129.85,858.79s-73,87-143.17,86.07a98.46,98.46,0,0,1-41.27-10c-45.73-21.71-74.52-71.29-75.63-73.21,0,0,0,0,0-.08s61.72-29.9,43.94-80.44c-7.6-21.64,9-39.35,30.46-52.5,28.64-17.56,65.91-27,65.91-27,.48,1,.89,2,1.3,2.89,6.26,14.12,8.52,22.31,13.26,32.09.82,1.7,1.71,3.45,2.71,5.26,7.07,13.12,5.18,65.51,37.94,85.15A465.5,465.5,0,0,0,1129.85,858.79Z"/><path class="cls-12" d="M869.75,756.38l-48.9,109.45v0l-18.46,4.28S755.64,868,712,844.06v0C638.09,666.48,804,567.5,804,567.5s24.58,25.56,25.73,45.8S869.75,756.38,869.75,756.38Z"/><path class="cls-8" d="M945.41,934.86c-45.73-21.71-74.52-71.29-75.63-73.21,0,0,0,0,0-.08s61.72-29.9,43.94-80.44c-7.6-21.64,9-39.35,30.46-52.5,28.67-11.3,54.24-19.93,67.21-24.16,5.7-1.85,9-2.89,9-2.89a251.42,251.42,0,0,1,4.26,35C1026.66,773.72,989.61,903.18,945.41,934.86Z"/><path class="cls-13" d="M811.88,1291v.1c-.73,44.66-2.37,84.58-5.63,104.13-9.88,59.16-41.88,154.8-41.88,154.8s-2.4-.11-6.4-.25h0q-15.65-6.46-30.78-14c19.82-60.2,51.26-155.18,57-169.2,3.51-8.69,5.63-45.24,6.85-86.07,1-32.49,1.35-67.68,1.39-93.66.1-19.55-.07-33.87-.28-38-.1-1.74.14-6.26.66-13,0-.38,0-.8.07-1.22.73-9.32,1.95-22.53,3.41-38.15.21-1.84.38-3.72.56-5.63h14.39s.14,6.85.32,18.57c.14,7.79.28,17.77.41,29.28v.91c.07,5.66.14,11.72.18,18,.14,13.59.24,28.58.28,44.23C812.47,1230.75,812.37,1261.88,811.88,1291Z"/><path class="cls-4" d="M1020.36,701.6c3.74,19.65-20.58,69.24-52.39,90.75s-84.21-19.64-84.21-19.64-56.12-63.63-62-83.28,13.31-29.93,5.83-63.61-10.3-48.66,7.48-48.66,32.75-24.32,53.33-34.61,62.68,12.16,80.45,30.87c7.27,7.66,16.6,27.23,25.31,49,21.61-4.84,29.2,23.28,32.71,40.78,2,10-4,18.69-10.08,24.59C1018.56,693.78,1019.78,698.53,1020.36,701.6Z"/><circle class="cls-3" cx="475.68" cy="860.77" r="149.82"/><path class="cls-8" d="M848.31,727.12s-17.07-33,0-57.85-14-48.14-3.79-69.19,43.93-57.53,43.93-57.53L803,603.37l9.85,72.78L839.11,743Z"/><path class="cls-14" d="M882.78,519.78C853,529,825.63,545,804,567.5c-26,27-48.21,66.9-23.15,113.52,46.78,87,65.49,64.55,46.78,87S760.27,851.3,778,898.08s15.91,62.68,1.87,75.78-52.1,72-10.61,102.92,54.75,35.55,51.39,64.55,36.11-32.74,0-71.1,6.94-42.1,23.78-75.79-3.74-62.68-3.74-87,53.33-52.39,61.75-61.75,30.51-36.07,13.85-54c0,0-26.39-9.57-88.42-90,0,0-6.83-23.39,2.53-36.49s-8.43-56.13-1.87-72,12.16-8.42,26.19-14,31.24-32.2,51.46-32.75,69.24,24.17,72,41.09,6.76,52.47,16.84,44,21.54.83,23.78,5.88,17.83,31.13-2,50.52c0,0,2,33.69,7.77,48.71s-19.21,85.75,33.18,108.21-.42,55.2-18.92,71.1-7.28,63.2,15.18,70,38.36,66.64,9.35,84.42,35.56,62.68,52.4,44.91c0,0-27.14-21.52,0-49.59s34.61-63.62,5.61-89.82,10.29-44,13.1-74.85,5.61-53-43-102.3,1.87-72.65-21.52-103.53S1076.51,577.6,999.79,540C939.36,510.31,916.66,509.34,882.78,519.78Z"/><circle class="cls-2" cx="325.85" cy="895.53" r="34.81"/><circle class="cls-2" cx="1543.75" cy="530.87" r="85.21"/><path class="cls-9" d="M399,799.67s-5.22,132.54,29.19,161.73c0,0,36.37,10.94,110.35,0,0,0,30.14-18.24,30.14-161.73Z"/><path class="cls-15" d="M565.36,877.13s-70.39,11.21-163.86,0c0,0,1.69,17.93,2.43,19.45s99.64,10.72,159.17-2.23C563.11,894.33,566.11,882.12,565.36,877.13Z"/><path class="cls-10" d="M399,799.67s83.91,8.22,169.65,0c0,0,1,41.1-1.5,57.3,0,0-94.41,13.69-166.39,0C400.71,857,396,827.56,399,799.67Z"/><path class="cls-16" d="M483.38,787.69c53.24,0,96.39,2.27,96.39,5.07s-42.88,6.91-96.12,6.91S387,795.55,387,792.76,430.14,787.69,483.38,787.69Z"/><path class="cls-15" d="M579.64,792.79S496.88,806,387,792.79c0,0,2,21.09,2.86,22.88S507,828.26,577,813C577,813,580.52,798.67,579.64,792.79Z"/><path class="cls-17" d="M437.24,743.88c-3.85-4.15-17.75-29-23.8-38.5s-5-33.4-22.61-36.59-33.2,4.7-38.39-.14,13-1.69,29.42-7.76,47.48-15,64.19-6.92S470,711.49,470,711.49s9.2,52.91,9.63,56.87-3,28.87-3,28.87H466.43Z"/><path class="cls-17" d="M496,797.23s35.15-27.12,49-42.48,21.44-27.85,32.44-31.62,31.15-5.27,36.78-9.66-3.11-10-15-8.06S573.52,709.2,568.77,717s-14.92,25-26.06,29.86S498,782,498,782Z"/><path class="cls-17" d="M498,698.32l15.8-59.2-7.91-13.3S473.14,648.05,472.27,654s-7.79,15.75-7.79,15.75l-4.21,16.18,32,25.57Z"/><path class="cls-18" d="M466.43,797.23s-1.62-8.56-11-16.79-29.21-39.85-33.1-46.11-1.95-7.24-17.84-9.87-12-14.82-26-18.81S361,688.2,352.87,683.26s1.31-4.94,7.79-1.34,10.71,0,22.06,4S404.79,699,411.6,711.56s25.63,32.27,25.63,32.27,27.25,29.64,29.2,39.19A117.7,117.7,0,0,0,470,797.18Z"/><path class="cls-18" d="M516.4,738.31c4.22-2.69,23.36-30.65,46.39-26.38s39.91,13.51,46.08,18.81,10.71,13.79,9.08,13.31-23.35-17.27-45.1-18.92-25.63,3.3-32.77,11.2-24,33.27-36,34.92S516.4,738.31,516.4,738.31Z"/><path class="cls-17" d="M556.63,645.85a7.07,7.07,0,0,1,2.89,8.12c-1.59,5.49-13.6,23.39-13.6,23.39l7.14,3.19s33.42-13.76,35.59-10.83,9-.05,10.38,3.79-5.48,8.78-18.74,22.39-20.77,20.2-20.77,20.2l-48.3,35.61s-4-32.91-5.89-35.59-9.25-27.88-9.68-30.22,9.7-22.83,12.2-24.44,16.12-12.94,20.82-12.2,11.35-11.94,14.06-9.88S556.63,645.85,556.63,645.85Z"/><path class="cls-17" d="M533.27,637.17s-10.81-14.57,0-31,31.15-26.14,37.61-23.5-4.62-5.26-11.42-5.26-16.3,2.19-28.87,11.85S515,600.19,513.72,609s-11.07,11.88-12.88,20.31,27.69,20,27.69,20Z"/><path class="cls-18" d="M460.27,685.9S431.72,623,431.72,618.08s9.73-24.7,14.27-25.69,16.88,10.87,20.15,21.4S476.4,647.72,476.63,654s-6.28,15.48-6.6,21.41l-.33,5.93S463.84,678.67,460.27,685.9Z"/><path class="cls-17" d="M454.14,720.06c-3.68-3.09,1.42-29.45,6.11-34.14s10.69-9.83,16.34-8.56c9.08,2,5.41,2,5.41,2l16,18.93s-17.08,20.91-16,43.06,0,49.37,0,49.37S459.41,724.45,454.14,720.06Z"/><path class="cls-18" d="M477.14,794.92s1.62-27,0-40.83,0-45.45,10.08-52,25.63-14.82,33.09-9.55,4.21,4.6,2.27,8.56,4.21,37.21-3.25,52S496,797.23,496,797.23H476.61Z"/><path class="cls-18" d="M507,630.59c0-1,2.59-26.86-1.3-30.07S502.12,597,495,598.64s-9.73.68-11.68,5.93-5.84,20.42-5.19,26S476.56,654,476.56,654s10-14.49,17.75-17.78S507,630.59,507,630.59Z"/><path class="cls-18" d="M533.27,637.17c.67-1.64,14.6-23.38,19.79-27.33s16.55-12.48,21.42-12.17,7.79-1.34,4.21,10.86S560.45,648.05,559.52,650c0,0-15.22-6.26-26.25,0s-13.63,10.87-13.63,10.87Z"/><path class="cls-18" d="M496,705.37c.05,1,4.54-24.37,23.68-44.46s2.6-27.53-3.24-26.78-18.8,1.76-24.18,8.34S482,679.41,482,679.41,495.64,698.76,496,705.37Z"/><path class="cls-18" d="M542.68,702.38c2.27-1,43.15-26,57.75-25s25-7.25,33.74-2.31a47.09,47.09,0,0,1,13.31,10.85s-5.52-13.83-24.66-20.09-23.69-9.55-35.36-4.94-31.8,16.61-34.4,19.66S542.68,702.38,542.68,702.38Z"/><path class="cls-18" d="M536.19,675.38c-2.29,1.08,12.37-8,17.85-16.65s14.92-17.38,20.44-25.56,20.76-6.53,30.82-10.49,17.84,1,25.31,3.14,18.17,16.57,12.65,13.3-19.79-13.78-26.28-13.3-13.31,5.54-19.48,8.29-6.89,11.79-17.23,14.18-11,8.32-17.81,12.6-16.54,16.47-16.54,16.47S541.06,673.07,536.19,675.38Z"/><path class="cls-8" d="M1258.8,1200.41c-10.63,17.38-30.5,63.56-109.28,84.82l.89-65.3Z"/><path class="cls-10" d="M741.81,1141.09l-.52-.11c-16-4.34-31.83-11-40.91-21.16,0,0,15-236.72,78.59-236.72l5.3,32.53s-47,62.28-53.58,103.38S741.81,1141.09,741.81,1141.09Z"/><circle class="cls-1" cx="1408.54" cy="582.52" r="149.82"/><circle class="cls-3" cx="1260.41" cy="403.46" r="42.6"/><circle class="cls-2" cx="1522.45" cy="690.83" r="39.76"/><path class="cls-13" d="M866.27,1210.91c34.59,6.24,133.05,22.5,183.77,15.19a11,11,0,0,1,12.49,10.91v57.66a11,11,0,0,1-4.08,8.56l-55.1,44.63a75.81,75.81,0,0,1-100.63-4.62l-49-47.77a11,11,0,0,1-3.32-8.37l2.92-65.84A11,11,0,0,1,866.27,1210.91Z"/><path class="cls-19" d="M1373.69,475.23V635.14c0,8.54,11.8,10.85,15,2.91a16.22,16.22,0,0,0,1.11-6.12V531.69a7.79,7.79,0,0,1,7.79-7.78h0a7.79,7.79,0,0,1,7.78,7.78V640.26a7.78,7.78,0,0,0,7.79,7.78h5a7.78,7.78,0,0,0,7.78-7.78v-165a7.78,7.78,0,0,0-7.78-7.77h-36.66A7.78,7.78,0,0,0,1373.69,475.23Z"/><path class="cls-15" d="M1399.8,334.27h0a38.25,38.25,0,0,1,38.26,38.25v98.24a11.94,11.94,0,0,1-11.94,11.93h-52.64a11.94,11.94,0,0,1-11.94-11.93V372.53a38.25,38.25,0,0,1,38.25-38.26Z"/><circle class="cls-9" cx="1399.8" cy="378.3" r="25.3" transform="translate(802.17 1699.43) rotate(-80.78)"/><path class="cls-15" d="M1382.52,384.85h0a.43.43,0,0,1,.41.29l.58,1.91a.44.44,0,0,0,.54.28.46.46,0,0,0,.28-.28l.64-1.92a.41.41,0,0,1,.41-.29h.16a.42.42,0,0,1,.41.29l.63,1.91a.43.43,0,0,0,.82,0l.58-1.9a.44.44,0,0,1,.41-.29h0a.43.43,0,0,1,.43.43.34.34,0,0,1,0,.14l-1.29,3.82a.41.41,0,0,1-.4.29h-.2a.42.42,0,0,1-.41-.29l-.62-1.92a.43.43,0,0,0-.54-.27.42.42,0,0,0-.28.27l-.62,1.92a.42.42,0,0,1-.41.29h-.21a.42.42,0,0,1-.4-.29l-1.29-3.82a.43.43,0,0,1,.27-.54Z"/><path class="cls-15" d="M1391.59,383.53a.55.55,0,0,1,.54-.53.53.53,0,0,1,.53.53.51.51,0,0,1-.1.32.53.53,0,0,1-1-.32Zm.54,1.32h0a.45.45,0,0,1,.45.45v3.79a.45.45,0,0,1-.45.44h0a.45.45,0,0,1-.45-.44V385.3a.45.45,0,0,1,.45-.45Z"/><path class="cls-15" d="M1396.13,383.21h0a.44.44,0,0,1,.44.44h0v5.44a.44.44,0,0,1-.44.44h0a.44.44,0,0,1-.45-.44h0v-5.44a.44.44,0,0,1,.44-.44Z"/><path class="cls-15" d="M1400.13,383.21h0a.44.44,0,0,1,.44.44h0v5.44a.44.44,0,0,1-.44.44h0a.45.45,0,0,1-.45-.44v-5.44A.44.44,0,0,1,1400.13,383.21Z"/><path class="cls-15" d="M1403.43,387.19a2.46,2.46,0,1,1,2.47,2.45h0A2.49,2.49,0,0,1,1403.43,387.19Zm4,0a1.57,1.57,0,1,0-1.56,1.67,1.63,1.63,0,0,0,1.56-1.67Z"/><path class="cls-15" d="M1411.23,384.85h0a.44.44,0,0,1,.41.29l.58,1.91a.43.43,0,0,0,.54.28.44.44,0,0,0,.27-.28l.64-1.92a.42.42,0,0,1,.41-.29h.14a.41.41,0,0,1,.41.29l.64,1.91a.42.42,0,0,0,.53.28.41.41,0,0,0,.28-.28l.58-1.9a.44.44,0,0,1,.41-.29h0a.43.43,0,0,1,.43.43.34.34,0,0,1,0,.14l-1.29,3.82a.41.41,0,0,1-.4.29h-.2a.42.42,0,0,1-.41-.29l-.62-1.92a.43.43,0,0,0-.54-.27.42.42,0,0,0-.28.27l-.63,1.92a.4.4,0,0,1-.4.29h-.21a.42.42,0,0,1-.4-.29l-1.29-3.82a.43.43,0,0,1,.27-.54Z"/><path class="cls-15" d="M1401.21,371.48a.81.81,0,0,0-.6-.29h-5.06a.81.81,0,0,0-.8.79.68.68,0,0,0,0,.14l.16,1,.68,4.08a.79.79,0,0,0,.78.66h3.41a.78.78,0,0,0,.78-.67l.65-4.06.15-1A.75.75,0,0,0,1401.21,371.48Zm.13.95a.18.18,0,0,1-.17.17h-.55l-.08.51-.63,3.94a.11.11,0,0,1-.1.09h-3.42a.1.1,0,0,1-.1-.08l-.66-4-.09-.51h-.44a.17.17,0,0,1-.16-.17v-.58a.17.17,0,0,1,.16-.17h6.07a.17.17,0,0,1,.17.16h0Z"/><path class="cls-15" d="M1401.17,371.16h-6.07a.69.69,0,0,0-.68.69v.58a.68.68,0,0,0,.51.66l.17,0h6.14a.68.68,0,0,0,.61-.68v-.58a.68.68,0,0,0-.68-.69Zm0,1.44h-6.07a.17.17,0,0,1-.16-.17v-.58a.17.17,0,0,1,.16-.17h6.07a.17.17,0,0,1,.17.17h0v.58a.18.18,0,0,1-.17.17Z"/><path class="cls-15" d="M1398.28,370.49v-2.22a.23.23,0,0,0-.23-.22h0a2.36,2.36,0,0,1-2.52-1.77l-.21.27a4.8,4.8,0,0,1,1.69.13,1.59,1.59,0,0,1,1,.81.21.21,0,0,0,.23.16.22.22,0,0,0,.18-.21,6.3,6.3,0,0,1,1.36-3.65l-.36-.1a18.54,18.54,0,0,1,.39,2.57,1.45,1.45,0,0,1-.16,1,.47.47,0,0,1-.61.15.21.21,0,0,0-.29.07.24.24,0,0,0,.08.3.85.85,0,0,0,.83,0,1.1,1.1,0,0,0,.55-.73,3.3,3.3,0,0,0,0-1c0-.39-.09-.78-.14-1.16s-.15-.88-.25-1.31a.21.21,0,0,0-.36-.09,6.85,6.85,0,0,0-1.49,3.95l.43-.06a2,2,0,0,0-1.19-1.08,4.61,4.61,0,0,0-1.88-.18.22.22,0,0,0-.22.22.43.43,0,0,0,0,0,2.82,2.82,0,0,0,2.14,2,2.77,2.77,0,0,0,.91,0l-.28-.21v2.22a.22.22,0,0,0,.22.22.21.21,0,0,0,.21-.22Z"/><path class="cls-15" d="M1406.85,360.43h-5.48a.83.83,0,0,0-.83.83v2.38a.83.83,0,0,0,.77.83v.65a.39.39,0,0,0,.24.37.41.41,0,0,0,.16,0,.4.4,0,0,0,.29-.12l.92-.92h3.94a.83.83,0,0,0,.83-.83v-2.38a.84.84,0,0,0-.83-.84Zm.4,3.2a.4.4,0,0,1-.4.4h-4.11l-.43.43-.58.58v-1h-.42a.4.4,0,0,1-.34-.4v-2.38a.4.4,0,0,1,.4-.4h5.48a.4.4,0,0,1,.4.4h0Z"/><path class="cls-14" d="M1085.16,643.74c-2.52,1.33-12.74,35.61-1.59,45s12,30.68,7.7,42.82,13.28,11.08,17.53-4.32.29-23.9-14-41.42S1085.16,643.74,1085.16,643.74Z"/><path class="cls-14" d="M837.12,1167.17s33.32-10.91,28.81-39c-2.74-17-11.8-30.67-18.5-38.78a2.26,2.26,0,0,0-3.87,2.19c3.83,11.57,8.44,29.91,3.21,39.3C836.79,1148.84,819.88,1166.66,837.12,1167.17Z"/></g></svg>