<svg xmlns="http://www.w3.org/2000/svg" viewBox="0 0 1920 1920"><defs><style>.cls-1{fill:#e1e6d0;}.cls-2{fill:#256f64;}.cls-3{fill:#deb38e;}.cls-4{fill:#cda47e;}.cls-5{fill:#b08a66;}.cls-6{fill:#6b6967;}.cls-7{fill:#425829;}.cls-8{fill:#647032;}.cls-9{fill:#d0cfce;}.cls-10{fill:#b8bcac;}.cls-11{opacity:0.2;}.cls-12{fill:#626f32;}.cls-13{fill:#fff;}.cls-14{opacity:0.1;}.cls-15{fill:#9c7654;}.cls-16{fill:#58652c;}.cls-17{fill:#dfb1a1;}.cls-18{fill:#3d432f;}.cls-19{fill:#d68e90;}</style></defs><g id="Layer_2" data-name="Layer 2"><path class="cls-1" d="M1575.26,1282.48c0,11.76-.45,23.38-1.25,34.92a478.16,478.16,0,0,1-171.7,333.66c-1.26,1.08-2.54,2.13-3.83,3.13-6.64,5.5-13.42,10.72-20.38,15.76q-17.52,12.83-36.24,24c-3,1.78-6,3.55-9,5.29-8.45,4.84-17.11,9.43-25.88,13.7q-9.18,4.54-18.6,8.63c-2,.9-4,1.77-6,2.61q-20.76,8.76-42.43,15.58a475.63,475.63,0,0,1-66.11,15.72c-3.76.62-7.55,1.21-11.34,1.7-6,.87-12.07,1.57-18.19,2.19l-7.79.73q-8.61.69-17.28,1.12-11.54.51-23.17.52c-3.72,0-7.44,0-11.12-.14-9.19-.21-18.33-.66-27.37-1.36-.63,0-1.22-.14-1.85-.21q-15-1.2-29.7-3.37-15.86-2.3-31.4-5.67a463.93,463.93,0,0,1-64-18.57c-5.74-2.09-11.41-4.28-17-6.61h0c-1.42-.62-2.85-1.18-4.24-1.84q-13.2-5.54-26-12c-.18-.07-.35-.18-.53-.25-1-.45-1.94-.94-3-1.46-1.88-.94-3.79-2-5.67-2.92l-1.11-.59a473.65,473.65,0,0,1-47.75-28.8c-2.26-1.53-4.49-3.09-6.68-4.66l-.91-.69c-.62-.46-1.28-.91-1.91-1.39a7.94,7.94,0,0,1-.8-.6q-8.55-6.15-16.76-12.73-10.23-8.09-20-16.76-10-8.82-19.44-18.22a473.11,473.11,0,0,1-43.47-49.35c-2.89-3.72-5.71-7.51-8.42-11.34-.49-.63-1-1.29-1.42-2q-6.48-9.07-12.45-18.4c-1.6-2.46-3.17-5-4.73-7.47q-4.12-6.63-8-13.46l-.73-1.29a473.2,473.2,0,0,1-28.93-60c-3.41-8.55-6.58-17.25-9.5-26-.45-1.4-.9-2.79-1.35-4.21-1.08-3.31-2.09-6.61-3.1-10-.83-2.82-1.67-5.63-2.43-8.48s-1.53-5.53-2.23-8.32q-1.94-7.31-3.55-14.67a479.41,479.41,0,0,1-11.65-105.49c0-148.46,67.51-281.14,173.51-369,1.25-1,2.5-2.08,3.79-3.09a478,478,0,0,1,133.48-76.62q18-6.82,36.72-12.14c6.86-1.94,13.74-3.75,20.7-5.39l2.68-.62c5.91-1.39,11.89-2.65,17.87-3.76a479.59,479.59,0,0,1,90.49-8.52q24.1,0,47.62,2.33c2.78.28,5.53.52,8.31.84,6.5.76,13,1.67,19.44,2.71a6.56,6.56,0,0,1,.87.14q20.8,3.33,41,8.41c5.35,1.29,10.64,2.75,15.89,4.28,3.1.87,6.16,1.78,9.18,2.75a15.32,15.32,0,0,1,1.81.59,475.34,475.34,0,0,1,98.42,43.72,481.14,481.14,0,0,1,75.78,55.15C1513.07,1012.05,1575.26,1140,1575.26,1282.48Z"/><path class="cls-2" d="M1532.1,1481.49a480.79,480.79,0,0,1-129.79,169.57c-1.26,1.08-2.54,2.13-3.83,3.13-6.64,5.5-13.42,10.72-20.38,15.76q-17.52,12.83-36.24,24c-3,1.78-6,3.55-9,5.29a155.76,155.76,0,0,1,199.28-217.74Z"/><circle class="cls-1" cx="657.47" cy="754.36" r="65.87"/><circle class="cls-2" cx="1074.16" cy="328.28" r="85.21"/><rect class="cls-1" x="344.74" y="302.95" width="743.97" height="410.75" rx="37.21"/><path class="cls-3" d="M1360.27,681s0-50.53-42.72-70.56-122.85-52.64-168.35.12C1149.2,610.52,1327,662.18,1360.27,681Z"/><path class="cls-4" d="M1462.15,883s46.51-81.58-37.69-158.33S1126.18,545.9,984,664.72,1462.15,883,1462.15,883Z"/><path class="cls-5" d="M1467.23,855.17c-9.36,120.26-156.36,126.76-156.36,126.76S1198.43,957.17,1096,932c-20.93-5.15-41.42-10.3-60.48-15.27-22.43-5.84-42-20.1-57.52-39.27v0c-62-76.86-58-233,94.94-247.38C1264.09,612.1,1476.58,734.9,1467.23,855.17Z"/><ellipse class="cls-6" cx="928.06" cy="1603.82" rx="113.96" ry="5.65"/><path class="cls-7" d="M1233.88,1464.24c5.8,7.09,18.18-13.29,20.24-15.93,1.14-1.46-.77-6.61-6.92-10l0,0c-4.49-2.47-11.16-4-20.59-2.43h0a17.28,17.28,0,0,0-2.23.45h0a12.1,12.1,0,0,0-1.57.31c-13.94,3.31-16.66,1.5-16.24-.83a2.8,2.8,0,0,1,.31-1,12.38,12.38,0,0,1,2.4-3.1,26.84,26.84,0,0,1,11.58-3.72,35.17,35.17,0,0,1,14.92,1.6,48.76,48.76,0,0,1,10.16,4.63s8.07,1.6,4.49-6.65c-1.12-2.5-1.19-5.77-1-9,.07-2.19.25-4.39.21-6.33,0-4.49-1.08-7.58-6.47-6.19-11.06,2.85-28.66,7.51-33,1.35,0,0,26.54-6.78,29.49-11.58.84-1.39-.62-4.48-3.2-8.17-6.19-9-18.71-21.6-18.71-21.6s-3,4-7.2,9.39c-8.66,11.13-22.6,28-26.11,26.75s7.06-19.13,16.17-31.83c4.69-6.53,9-11.75,10.71-12.55,0,0-8-42.85-51.44-19.23,0,0-3.75.69-6.5,6-3.17,6-5,18,1.49,41.87l-7.65-7a54.47,54.47,0,0,0-50.74-12,71,71,0,0,0-13.87,5.39S1071,1380,1075,1401c0,0,26.19-22,38.78,1.42s-33.32,13.46-41.42,4.8a90,90,0,0,0-4.9,15.34c-1.64,7.65-2.23,16.56,1.42,22.71a206.52,206.52,0,0,1,43.61-18.78,155.18,155.18,0,0,1,26.61-5.56l.94-.11s4,.21.83,1.85c-1.7.9-5.63,2.22-13.63,4.24-.8.21-1.63.42-2.47.66-22,6.57-49.52,28.45-49.52,28.45l13.49,25.11s52.72-43.09,64.9-40.35-1.78,3.55-27.48,22.54-32.24,24.45-32.24,24.45l5.74,6.54,11.93,13.63a4.18,4.18,0,0,0,5.91.35,1.38,1.38,0,0,1,.25-.21c9.28-9.7,36.48-38,40.48-40.76,5.15-3.58,9.42-4.59,0,9.49-7.13,10.65-22.43,32-29.56,41.88v0l-3.72,5.18,21.18,21.6s12.06-17.32,21.63-34.46c5.32-9.53,9.87-19,11.13-25.43,3.51-17.87,6.36,2.75,1.67,12.77-1.22,2.57-3.34,6.61-5.85,11.3-7.27,13.46-17.8,32.1-19.72,36-2.57,5.29,4.66,13.88,8.66,12.66s23.55-32.83,24-39.13,5.66-13,7.72.21-29.81,40.8-28,41.49,16.45,4.94,21.18-2.26,12.73-29.07,16.45-29.63,3.73,7.37-.8,14.47-7.65,13.56-4.27,12.07,5.35,1.42,9.73-.35,28.11-36.07,26.54-40.13c-1.18-3.06-10-10.51-13.56-14.85-1.22-1.43-1.81-2.54-1.39-3,.66-.8,3.82.07,7.4,1.84h0c5.6,2.82,12.24,7.76,12.45,12.24,0,0,6.43-7.23,6.22-10.67-.06-1.39,1.71-3.45,3.17-5.84,2.12-3.55,3.55-7.8-2.68-11.55-10.43-6.3-46-13.81-43.54-19.16S1228.17,1457.18,1233.88,1464.24Zm-80.9-59.93c-3.79,2.65-4.8-.24-9.67-6s-3-6.3,4.8-3.38S1153,1404.31,1153,1404.31Zm64.65,108.86c1.81-2.37,7.59,3.51,7.45,9.53s-2.44,16-4,11.51S1215.65,1515.74,1217.63,1513.17Zm-21.21-71.89a6.87,6.87,0,0,1-3.1,1.71c-2,.45-4.13-.39-5.46-3.73-1.94-5.07,1.05-6.12,4.32-5.77a12.64,12.64,0,0,1,5.87,2C1199.38,1436.93,1198.33,1439.54,1196.42,1441.28Zm-41.67-11.06c-1.14-4.45,3.69-9.11,7.8-6.81,3.09,1.7,2.57,4.9,1.32,7.61a23.66,23.66,0,0,1-3,4.63C1157.12,1434.36,1155.28,1432.31,1154.75,1430.22Zm14.82,23.3c-3.44,3.13-3.44,2-6.43-1.28-2.51-2.72,2.67-9.81,7.89-10.4a5.12,5.12,0,0,1,3.2.52,4.19,4.19,0,0,1,.94.66s0,0,0,0C1178.68,1446.5,1169.57,1453.52,1169.57,1453.52Zm8.28-37.84c.8-2.43,20.34-10.88,17.77-3.51S1174.72,1425,1177.85,1415.68Zm16.1,88s-9.63,5.85-7.72,1.36,3.23-15.69,8.59-17.81S1200.56,1498.74,1194,1503.67Zm5.46-49.73c7.06-10.15,20.24-4.42,16.87-1.7S1196.25,1458.53,1199.41,1453.94Z"/><path class="cls-7" d="M1107.46,1276.89c-9.29-1.15-24-3-25-8.87,0,0,22.12,2.85,25.91.14s-6.16-28.7-6.16-28.7-33.91,19.9-37.21,17,30.64-24.77,35.23-25c0,0,2.5-10-1.57-18.51a18.26,18.26,0,0,0-2.29-3.65c-4.38-5.46-12.66-9.32-27.93-7.55,0,0-12.59-2.53-19.16,29.15,0,.24-.11.49-.14.73-.28,1.39-.56,2.82-.8,4.31l-3-7v0l-.24-.52s-.21-.49-.63-1.36v0a2.19,2.19,0,0,0-.17-.35,41.16,41.16,0,0,0-7.44-10.12s0-.07,0-.07c-6.88-7-18.71-14-37.66-12.31a13.77,13.77,0,0,0-4.73,2.12c-3,2-6.71,5.6-9.22,12.45a38.71,38.71,0,0,0-1.28,4.17s1.46-.45,3.72-.9c.94-.17,2-.38,3.2-.49,7.65-1,19.12-.27,21.18,11.72.13.73.2,1.5.27,2.33.46,7.13-2.71,9.5-7.23,9.12-.1,0-.24,0-.35,0s-.35,0-.52-.07c-5.15-.76-11.82-4.66-16.9-9-3.72-3.1-6.61-6.44-7.44-8.84,0,0-17,15.38-15.62,27.34a162,162,0,0,1,18.92-1.53,164.22,164.22,0,0,1,25.32,1.15c.35,0,.69.1,1.08.17h0a115.11,115.11,0,0,1,16,3.2s7,3.24-11.58.73c-.87-.1-1.77-.21-2.68-.24a27.8,27.8,0,0,0-3.06-.18c-8.69-.24-18.74,1.22-27,2.82-9.18,1.77-16,3.76-16,3.76l1.49,22.74,2-.59c1.64-.49,4.14-1.22,7.27-2.05,2.33-.66,5-1.39,7.93-2.16,7.2-1.84,15.65-3.86,23.34-5.28,3.82-.7,7.51-1.26,10.71-1.53,5.14-.49,9.11-.32,10.92.94,5.7,4,2.15,3.44-9.25,5-3.52.45-7.76,1.11-12.7,2.19-2,.38-4.07.87-6.26,1.43-8.87,2.22-15.47,3.93-20.34,5.25-2.33.62-4.28,1.14-5.85,1.6-4.59,1.25-6.22,1.74-6.22,1.74l3.76,12.1.8,2.57,1.73,5.64a3.39,3.39,0,0,0,4.25,2.08.53.53,0,0,0,.28-.14c5.56-2.43,17-7.37,26.88-11.51,8-3.37,15-6.19,17-6.71.06,0,.1,0,.17,0,4.45-1,7.69-.67.49,4.52-1,.76-2.26,1.6-3.76,2.57-3.62,2.33-8.87,5.56-14.36,9-12.52,7.72-26.5,16.14-26.5,16.14l8.45,22.4s7.61-4.77,16.73-11.1c10.67-7.44,23.4-17.11,28.1-23.75,8.72-12.31,3.82,3.93-3.13,10-4.53,3.89-16.45,13-25.25,19.89-4.77,3.65-8.66,6.68-10,7.79-3.65,3.23-1.29,11.72,2.16,12,.94.07,3.61-1.25,7-3.3,8.76-5.29,22.43-15.41,24.27-18.68,2.58-4.52,8.63-8,5.64,2.51-2.23,7.75-20.94,15.79-30.09,19.86-3.23,1.46-5.25,2.39-5,2.67a26.62,26.62,0,0,0,4.69,3.27c3.52,2,8.32,3.72,11.9,1.32,6-4,19.41-17.84,22.4-17.11s.27,6.58-5.5,10.51-10.36,7.89-7.3,7.75,3.51,2.71,7.37,2.64c1.32,0,5.74-2.26,10.92-5.28.21-.11.42-.25.63-.35,2.71-1.63,5.63-3.44,8.41-5.29,7.13-4.66,13.39-9.42,13.53-11.06.21-3.51-7-16.79-5-17.73s12.21,10.88,10,16.38c0,0,7.27-3.44,8.28-6.09s12-5,6.29-12.8-29.59-24.1-25.87-27.26,20.17,1.95,22,9c1.53,5.77,12.66-.9,18-4.28h0c.07-.07.14-.1.17-.14,1.11-.69,1.91-1.21,2.33-1.46.84-.45,1.29-2.26.77-4.59-1.08-4.66-6.16-11.41-20.14-13.53-21-3.06-8.38-7.72-8.38-7.72s14.74-3.2,26.39,12.8c0,0,5.46,3.58,5.67-3.62S1116.78,1278.1,1107.46,1276.89Zm-67.09-36.56c4.8,4.49.42,8.45.42,8.45-3.72.77-3.52-1.66-5.15-7.37S1035.64,1235.74,1040.37,1240.33Zm1.08,25.53c3.34,4.31-5.46,8.66-5.46,8.66C1028.48,1267.88,1038.14,1261.58,1041.45,1265.86Zm-5.08,24.55c-1.84.66-2.64.77-3.13.21s-.7-1.49-1.25-3.09c-.35-.94.24-2,1.28-3,2.4-2.19,7.31-3.76,9.85-1.6a1.84,1.84,0,0,1,.52.52c1.15,1.39.62,2.64-.52,3.68C1040.93,1289.16,1036.37,1290.41,1036.37,1290.41Zm6.26,41.29a10.48,10.48,0,0,1-5.11,3.33s-9.18,1.53-6.23-1.28c2.68-2.61,7.06-9.74,11.55-10.61a3.94,3.94,0,0,1,.9-.1C1047.08,1323,1045.9,1328.11,1042.63,1331.7Zm11.48,26.81a30.32,30.32,0,0,1-2.37,4c-2.26,3.38-4.83,6.06-4.59,3.34.38-3.79,2.3-15.37,4.59-16.66a1.21,1.21,0,0,1,.56-.17C1054.32,1349,1056.09,1354.44,1054.11,1358.51Zm.8-72v-.14a5.36,5.36,0,0,1,0-1.07c0-.25.07-.49.11-.7l0-.38c.52-2.68,2.16-3,3.9-2.44,2.19.7,4.59,2.93,4.87,3.73a2.52,2.52,0,0,1-1,2.53C1060.47,1290.1,1055.46,1291,1054.91,1286.48Zm16.73,16.94c-3.45,1-17.12-1.36-13.19-3.79C1067.18,1294.2,1075.08,1302.34,1071.64,1303.42Zm-1.74-36.06c-3,3.16-11.1,3.54-14.26,1.6a3.76,3.76,0,0,1-.59-.42c-1-.91-1.08-2.16.27-3.72a.73.73,0,0,1,.14-.18.84.84,0,0,1,.39-.24C1058.8,1263,1074.1,1262.94,1069.9,1267.36Z"/><path class="cls-8" d="M1065.13,1469.24c-6.54-.76-16.69-2-17.46-6.15,0,0,15.37,2,18,.17s-4.28-20-4.28-20-23.61,13.88-25.84,11.72,21.32-17.25,24.48-17.39c0,0,2.44-9.77-3.16-16a14.72,14.72,0,0,0-7.44-4.24,24.4,24.4,0,0,0-5.64-.7,39.44,39.44,0,0,0-5.87.28s-9.67-2-14,23.76l-2.3-5.26a13.11,13.11,0,0,0-.94-1.87c-2.57-4.77-11.16-16.8-31-15a7.24,7.24,0,0,0-1.67.55c-2.43,1.12-6.88,4.18-8.94,12.45,0,0,18.82-5.91,19.76,8.8s-20.45.07-22.61-6.15c0,0-11.82,10.67-10.88,19,0,0,22.32-3.58,42.7,2.13,0,0,4.87,2.29-8.06.52s-33.84,4.28-33.84,4.28l1,15.89s37.56-11.37,43.19-7.44-1.77,1.49-19.61,5.94-22.44,5.85-22.44,5.85l4.35,14.19a2.28,2.28,0,0,0,2.92,1.42c.07,0,.14-.07.21-.07,7.17-3.09,27.93-12.1,30.71-12.76,3.44-.63,5.88-.28-2.36,5s-28.42,17.46-28.42,17.46l5.88,15.61.35-.21c1.11-.69,4.73-3,9.18-6.05h0s0,0,0,0c7.79-5.36,18.05-12.91,21.59-18,6-8.59,2.65,2.71-2.15,6.92-4,3.55-16.69,13.11-22.19,17.43h0c-1,.83-1.81,1.46-2.23,1.8-1.53,1.33-1.57,3.93-.8,5.92v0c.49,1.32,1.36,2.37,2.29,2.44,2.44.2,20-12.18,21.74-15.31s6-5.6,3.93,1.71-25.18,15-24.38,15.68,7.37,5.91,11.51,3.2c3.93-2.57,12.18-11,15-11.82v0a1.18,1.18,0,0,1,.56-.07c1.46.32.87,2.51-1,4.8a.09.09,0,0,1,0,.07,14.07,14.07,0,0,1-2.71,2.44c-4,2.71-7.24,5.42-5.11,5.35s2.43,1.85,5.18,1.85a5.36,5.36,0,0,0,1.81-.6c5.77-2.47,21.38-12.52,21.49-14.64.14-2.43-4.87-11.65-3.51-12.38s8.52,7.58,7,11.44c0,0,5-2.43,5.71-4.2s8.31-3.52,4.45-8.87-20.59-16.73-18-19,14,1.36,15.3,6.23,12.59-3.17,14.3-4.07,1.08-10.47-13.53-12.59-5.84-5.39-5.84-5.39,10.22-2.19,18.36,8.94c0,0,3.79,2.5,4-2.51S1071.64,1470,1065.13,1469.24Zm-46.67-25.52c3.37,3.13.31,5.87.31,5.87-2.57.56-2.43-1.14-3.58-5.14S1015.19,1440.55,1018.46,1443.72Zm.73,17.8c2.29,3-3.79,6-3.79,6C1010.18,1463,1016.89,1458.53,1019.19,1461.52Zm-3.58,17c-2.51.91-2.3.28-3-2s5.84-5.57,8.07-2.79S1015.61,1478.56,1015.61,1478.56Zm2.19,30.54h0a6.63,6.63,0,0,1-1.42.59s-6.37,1-4.31-.94c1.73-1.63,4.38-5.74,7.06-7a3.39,3.39,0,0,1,1.6-.42C1023.61,1501.31,1021.48,1507,1017.8,1509.1Zm10.26,16.9c-1.5,3.06-5.08,7.72-4.8,5.15s1.56-10.75,3.23-11.62C1027.92,1518.7,1029.48,1522.91,1028.06,1526Zm.48-51c.39-5.42,5.81-.87,6.16.14C1035.5,1477.56,1028.27,1480.48,1028.54,1475Zm11.69,12.66c-2.36.73-12-.94-9.18-2.64C1037.14,1481.21,1042.66,1486.91,1040.23,1487.64Zm-1.22-25.11c-1.77,1.91-6,2.4-8.69,1.67h0c-1.91-.52-2.92-1.74-1.28-3.55a7,7,0,0,1,2.88-.66h0C1035.64,1459.71,1041.2,1460.2,1039,1462.53Z"/><path class="cls-8" d="M867.17,1531.7c-33.28-34.53-68.89-16.86-68.89-16.86l-10.16,4.48c27.17-41.83,10.44-51.36,10.44-51.36a5,5,0,0,0-.46-.46c-1.35-1.49-2.71-2.85-4.06-4.13-.94-.87-1.85-1.71-2.75-2.47a51.76,51.76,0,0,0-11.13-7.45c-25.91-12.34-41,15.58-41,15.58,4.49,4.25,19.37,55.68,13.29,55.75s-22.68-49.59-22.68-49.59-33.77,16.66-32.24,22.75,26.68,22.81,26.68,22.81c-6.44,4.87-23.13-6.36-33.63-13.42-7.86-5.29-8.56,4.17-11.1,12.34l.73,1.29q3.91,6.82,8,13.46c19.71-.32,28.86,11.89,28.86,11.89s8.66,15.65-15.58.14a55.54,55.54,0,0,0-8.55-4.56q6,9.34,12.45,18.4c.45.66.93,1.32,1.42,2a14.42,14.42,0,0,1,13.43,10.68c.76,2.5-1.74,2.19-5,.66a473.11,473.11,0,0,0,43.47,49.35c-1.29-4.28-2.43-8.11-3.34-11.24-5.15-18-1.08-15.44,2.71-9.87,2.3,3,12.14,23,20.07,39.33q9.76,8.65,20,16.76l15.34-8.86,0,0,.56-.31,3.82-2.23s-1-1.67-4-6.19c-.27-.41-.55-.87-.9-1.35,0,0,0,0,0-.07v0c-3.82-5.63-10.15-15-20.41-29.49-20.38-29-34.4-35-21-33.35,8.59,1.08,28.35,27.82,41.36,46.84,0,0,0,0,0,.07.35.42.59.87.87,1.26v.06c6.82,9.92,11.55,17.32,11.55,17.32l22.15-21s-3.65-5.56-9.39-13.18v0c-.42-.59-.87-1.18-1.32-1.78s-.87-1.11-1.32-1.67c-.77-1-1.6-2-2.47-3.13-8.31-10.43-19.2-22.5-29.7-29.35-21.32-13.94-11.24-10.95-11.24-10.95,23.13,11.06,42.71,28.1,54.26,39.51,1.42,1.39,2.74,2.71,3.89,3.92.94.94,1.78,1.81,2.51,2.61.59.59,1.11,1.19,1.56,1.67,2.12,2.3,3.24,3.65,3.24,3.65a18.06,18.06,0,0,0,3.93-4.9,21.47,21.47,0,0,0,1.53-3,39.82,39.82,0,0,0,1.63-4.69c3.51-12.66,1.77-28.1,1.77-28.1-11.16,6-61.87-.49-41.21-20.17s40.52,12.76,40.52,12.76a47.09,47.09,0,0,0,3.23-7.3v0a35.31,35.31,0,0,0,2-9.42v0C871.59,1537.06,867.17,1531.7,867.17,1531.7ZM737,1562c-6.57,8.11-13.52-5.28-9.21-7.65C729.52,1553.3,743.54,1553.89,737,1562Zm.94-30.88c-.27-8.52,17.08,7.34,17.15,10.15C755.29,1552,738.18,1539.56,737.9,1531.08Zm20.45,53.42c-4.14,2.29-4.59,3.37-7.09-1.08,0,0-8.21-12.14-1.22-13.22S762.49,1582.2,758.35,1584.5Zm7.65-16.38s-5-12,2.3-13.29S779.67,1568.26,766,1568.12Zm30.4-32.21c-6.92,4.18-8.87,6.75-11.93,2.68,0,0-.94-7.75,8.07-8S803.36,1531.7,796.4,1535.91Z"/><path class="cls-8" d="M933.57,1240.33c-8.59,6.23-51.72,6.23-36.87-12.38s35.37,6.3,35.37,6.3c6.64-18.09-2.75-26.75-2.75-26.75-31.89-25.25-59.5-6.74-59.5-6.74l-7.93,4.86c17.6-37.83,2.5-44,2.5-44-35.85-29.7-49.45,7.23-49.45,7.23,4.24,3.06,23,44.35,17.87,45.08S808,1175,808,1175s-26.19,17.53-24.21,22.4,25,16.17,25,16.17c-4.8,4.69-20-2.89-29.66-7.69s-5.39,11.17-9.81,17.91,3.06,6.86,3.06,6.86c21.46-7.38,33.56,4.86,33.56,4.86s9.15,12.18-12.94,1.78-31.65,1.6-30.12,4.38,9.71,23.54,16,18.33,25.43.42,26.92,5.63-31.93,5-42.29,8.66-1.36,12.66-2,15.72,4.07,10.82,4.07,10.82c1.35-6.51,18.81-10.89,20.1-8.73s-14.16,9.74-16.17,13.11,14.36,38.74,18.15,41.25,6,.17,8.8,2.22.87-4.41-2.12-11.65-1.88-14.4,1.43-13.08c3.09,1.22,6.88,20.25,10,28.56.17.45.34.87.52,1.25,2.36,5.32,10.12,6.36,15,6.43a31.86,31.86,0,0,0,3.89-.21c.49-.06-1-2.43-3.41-6.08-1.8-2.82-4.13-6.37-6.46-10.19-5.71-9.43-11.38-20.55-9.43-26.5,3.79-11.51,7.51-4.42,7,1.28-.25,2.86,2.81,12.14,6.36,21.08,3.69,9.11,7.86,17.84,9.63,18.78,3.38,1.77,10.65-4,9.88-9a3.56,3.56,0,0,0-.14-.63c-1.49-5.21-13.39-37.63-16.17-47.5s2.78-27.83,3.37-11.06c.32,9.11,6.51,26.15,12.11,39.78,4.62,11.41,8.86,20.45,8.86,20.45l16-10.92,6.37-4.35s-16.73-34.32-23.24-48.76-2.78-12.76,1.08-8.72c3.06,3.06,22,31.4,29.74,43.05.35.52.66,1,.94,1.43,0,.07.07.07.07.14a3.94,3.94,0,0,0,5.53.94l7.33-5.67,11.62-9s-5.08-6.23-25.63-28.24-33-25.56-21.6-25.63,52.86,48.93,52.86,48.93l16-20s-23.34-27-42.85-36.35-10.75-7.93-10.75-7.93c29,9.53,53.67,29.71,59.54,34.75,0,0,0,0,0,0h0l1.29,1.15a14.78,14.78,0,0,0,2.51-4.14C938.57,1259.6,933.57,1240.33,933.57,1240.33Zm-153.1,85.21c-2.08,3.72-2.71-5.67-2-11.09s7-9.53,8.18-7.1C788.05,1310,782.52,1321.82,780.47,1325.54Zm16.31-72.69c-2.57-3.09,10.16-5.67,15.1,4.87C814.17,1262.42,799.36,1255.91,796.78,1252.85Zm12.73,50.64c-5.21-5.7-2.92-17.94,1.64-15s4.07,13.25,5.14,17.66S809.51,1303.49,809.51,1303.49Zm15-56.72c-4.52,7.51-11.9-2.92-8.59-5.36C817.23,1240.33,829,1239.32,824.47,1246.77Zm-3-25.84c-1.22-7.13,15.27,4.31,15.62,6.61C838.55,1236.54,822.66,1228.09,821.44,1220.93ZM845,1263.36c-3.13,2.36-3.38,3.3-6-.14,0,0-8.28-9.29-2.57-11S848.29,1261,845,1263.36Zm4.52-14.58s-5.67-9.46.28-11.3S860.88,1247.57,849.51,1248.78ZM871,1218.67c-5.29,4.2-6.58,6.57-9.67,3.47,0,0-1.78-6.29,5.74-7.44S876.25,1214.42,871,1218.67Z"/><path class="cls-7" d="M936.63,1397.77a51.34,51.34,0,0,0-3-6.74s0,0,0-.07a40.28,40.28,0,0,0-36.83-22.16l-7.93.28C919,1348.91,911,1338.34,911,1338.34c-5.22-15.3-13-20.24-20.35-20.83-5.32-.49-10.39,1.35-13.87,3.16a30.3,30.3,0,0,0-4.77,2.92c1.64,3.93-4,41.35-8,39.79-2.26-.91-1.91-13.46-1.22-23.93.52-7.72,1.22-14.29,1.22-14.29s-19.93,1.53-26.08,4.76c-1,.52-1.64,1.08-1.74,1.71-.87,4.34,10.6,21.8,10.6,21.8-2.43.66-5.25-1.18-8-4.1-3.65-3.76-7.2-9.29-9.88-13.43-3.13-4.93-6.12-.62-9.63,3.69a24.09,24.09,0,0,1-4,4.14,8.74,8.74,0,0,1-1.71,1.11c-6.29,3.1-.94,6.23-.94,6.23a34.3,34.3,0,0,1,9.11,2.85c10.85,5.22,12.87,14.26,12.87,14.26s.94,12.52-10.22-3.93a38.69,38.69,0,0,0-3.13-4c-5.78-6.5-11.55-8-15.51-7.68-3.1.21-5,1.6-5.12,2.61-.14,2.57-3.79,21,3.13,19.68s18.19,10.57,16.84,15-25.43-9.29-34.57-10.89-6.85,8.59-8.8,10.54-2,9.42-2,9.42c4-4.14,18.57-.28,18.5,1.81s-14.71,1.29-17.74,2.92-7.44,33.77-5.95,37.15,4.25,2.5,5.32,5.14,2.72-2.88,3.87-9.32,5.35-11.09,7-8.87-5.07,19-6.15,25.77,9.32,11.59,10.75,12.14c.34.14.38-1.7.38-4.69,0-9.15-.56-28.87,5.49-33.91,8-6.75,7.45-.25,4.42,3.79-2.54,3.41-7,24.73-7.16,32.59a6,6,0,0,0,.31,2.67c.59,1,2,1.46,3.75,1.46,3,0,6.82-1.63,7.69-4.48,1.36-4.42,7.72-32.62,10.3-40.83s14.95-19,7.58-6.64-12.73,51.92-12.73,51.92l11.65-1h0l11.48-1s.07-.62.21-1.7c.8-6.71,3.79-31.62,5.53-42.85,2-13,3.93-10.29,5.08-6,.8,3.73,1.35,34.12,1.56,44.59v.35a3.13,3.13,0,0,0,3.51,2.64l20.56-2.92s-.8-6.61-5.46-30.78-12-31.75-3.79-27.2,15.54,56.76,15.54,56.76l20.73-8s-4.42-28.9-14.15-43.54-4.07-10.09-4.07-10.09c18.95,21.39,27.3,50.57,27.3,50.57,11.09-3.72,17.91-24.17,17.91-24.17-9.11,1-40.21-16.56-20.9-23.9,13.53-5.18,21.77,8.49,25.49,17l0,0a61.88,61.88,0,0,1,2.3,6.3,22.79,22.79,0,0,0,4-4v-.07a17,17,0,0,0,3.06-6.36C940.42,1404.66,936.63,1397.77,936.63,1397.77Zm-162,25c-3.23,1.88.67-5.21,3.73-8.79s9.35-4.07,9.21-1.78C787.25,1414.68,777.83,1421,774.59,1422.81Zm34.85.6c-1.28,3.65-3.65-4.73-3.65-4.73-1.15-6.3,6.16-14.16,8.07-10.16h-.07C815.74,1412.59,810.73,1419.75,809.44,1423.41ZM820,1377c-.49-3.38,9.87,0,8.59,9.56C828,1390.92,820.47,1380.32,820,1377Zm22.74,6.78c-6.71,3.58-7.27-6.92-3.72-7.37C840.43,1376.18,849.44,1380.18,842.69,1383.76ZM850,1404c-3.37.45-4,1.08-4.27-2.5,0,0-1.78-10,3.06-8.94S853.44,1403.58,850,1404Zm2.51-40.13c2.36-5.64,8.94,9.25,8.17,11.09C857.58,1382.05,850.06,1369.53,852.5,1363.87Zm7.37,31.54s.28-9,5.36-8.07S868.6,1399.13,859.87,1395.41Zm29.39-13.15c-5.71.94-7.79,2.09-8.56-1.35,0,0,1.64-5.22,7.58-3S895,1381.39,889.26,1382.26Z"/><path class="cls-7" d="M750.63,1404.21c-9.67-19.37-36.27-15-36.27-15l-7.44,1c28.69-16.31,21.52-22.46,21.52-22.46-10.29-22.44-36-5.78-36-5.78,1.43,2.37-4.93,27.62-8.59,27s1.15-25.18,1.15-25.18-25.18,4.07-26.12,7,9.22,13.29,9.22,13.29c-5.29,1.6-11.93-5.36-16.17-9.71s-8.59,4.77-14.58,7.45-1.07,4.2-1.07,4.2c17.53.35,20,9.08,20,9.08s.56,8.17-9.39-1.56c-6.71-6.58-14.22-6.68-18.47-5.53q1.62,7.35,3.55,14.67c5.74,1.15,11.62,5.74,10.57,8.11-.52,1.11-3.89.9-8.34.21.76,2.85,1.6,5.66,2.43,8.48,1,3.34,2,6.64,3.1,10,4.06-4.94,11-9.22,5.11-2a30.8,30.8,0,0,0-3.76,6.19c2.92,8.79,6.09,17.49,9.5,26l2.47-.41s4.45-21.18,6.74-30,3.93-7.2,4.56-4.49c.66,2.3.28,22.33.14,29.18,0,1.22,1.49,2,3.23,1.64l19.23-4s-.55-4.28-4.13-19.72-10.23-19.76-2.65-17.53,12.8,35.82,12.8,35.82l19.55-7.3s-3.24-18.61-11.9-27.23-3.51-6.23-3.51-6.23c17.11,12.14,24,30.54,24,30.54,10.47-3.59,17.39-17.74,17.39-17.74-8.52,1.63-37-6.82-18.75-13.6s20.56,10.16,20.56,10.16C752.93,1410.61,750.63,1404.21,750.63,1404.21Zm-100.37,3.51c-.73,3-7.37-3.27-7.72-5.42S651.76,1401.29,650.26,1407.72Zm13.32-3.2c-6.47,3-6.6-3.86-3.23-4.52C661.71,1399.72,670,1401.5,663.58,1404.52Zm6,12.59c-3.13.63-3.79,1.08-3.93-1.22,0,0-1.28-6.43,3.24-6.22S672.8,1416.52,669.63,1417.11Zm3.66-26.78c2.36-3.93,8.1,5.25,7.3,6.54C677.46,1401.88,670.92,1394.37,673.29,1390.33Zm5.87,20s.49-6,5.29-5.84S687.23,1412,679.16,1410.36ZM707,1398.78c-5.36,1.22-7.31,2.23-7.93,0,0,0,1.7-3.65,7.16-2.78S712.34,1397.57,707,1398.78Z"/><path class="cls-8" d="M921.91,1255.14s60.66,112.18,14.09,356.41l-7.15,24.11h14.59C943.44,1635.59,1000.38,1340.85,921.91,1255.14Z"/><path class="cls-8" d="M825.54,1452.09c.29.57,88.35,113.89,96.37,171.84H910.82s-21-99.23-90.5-159.46Z"/><path class="cls-7" d="M936.93,1641.31c-1.72-2.43-31-53.44-11.45-199.88s53.44-167,53.44-167l9.88-2.65s-96.37,188.79-49.15,359.7Z"/><path class="cls-8" d="M988.8,1505.67c.21,2.15-40.42,84.42-46.15,110,0,0-8.22,20-2.93,15.81s14.09-5.29,14.09-5.29,33.55-113.32,43.07-120.62S988.8,1505.67,988.8,1505.67Z"/><path class="cls-7" d="M864,1541.51s58.88,44.22,68.75,59.17,9.94,23.25,9.94,23.25l-13.8,11.59s-59.6-93.29-81.56-93.72l22,.43Z"/><path class="cls-7" d="M963.4,1629.94s2.14-117.26-34.55-233.79l.57-11.59s53.51,147.51,39.34,242.73S963.4,1629.94,963.4,1629.94Z"/><path class="cls-9" d="M1040.65,1603.76v.94c0,27.44-1,51.23-2.54,71.89-.7,9.11-1.5,17.6-2.44,25.53s-1.91,15.09-3,21.8c-2,12.66-4.31,23.48-6.71,32.73q-15.86-2.3-31.4-5.67a463.93,463.93,0,0,1-64-18.57c-5.74-2.09-11.41-4.28-17-6.61h0c-1.42-.62-2.85-1.18-4.24-1.84q-13.2-5.54-26-12c-.18-.07-.35-.18-.53-.25-1-.45-1.94-.94-3-1.46-1.88-.94-3.79-2-5.67-2.92l-1.11-.59a473.65,473.65,0,0,1-47.75-28.8c-2.26-1.53-4.49-3.09-6.68-4.66l-.91-.69c-.62-.46-1.28-.91-1.91-1.39a7.94,7.94,0,0,1-.8-.6c-.17-3.44-.35-6.81-.45-10.12-.17-4.07-.31-8-.38-11.82-.11-2.92-.14-5.74-.18-8.42-.1-5.94-.1-11.34-.1-16.07v-.06c.07-11.17.31-18.54.38-20v-.28H863l42.29,0h65.59l37.31,0Z"/><path class="cls-10" d="M1033.38,1723.78c-.24,0-.45.11-.7.14a361.58,361.58,0,0,1-36.1,5.29c-21.35,2.16-44.13,3.06-66,3.2-5.74-2.09-11.41-4.28-17-6.61h0c-1.42-.62-2.85-1.18-4.24-1.84q-13.2-5.54-26-12c-.18-.07-.35-.18-.53-.25-1-.45-1.94-.94-3-1.46-1.88-.94-3.79-2-5.67-2.92l-1.11-.59a980.09,980.09,0,0,0,125.72-.87c20.9-1.57,34-3.34,36.93-3.79l.63-.07C1037.31,1708.41,1033.38,1723.85,1033.38,1723.78Z"/><path class="cls-10" d="M1038.67,1676.52a4.55,4.55,0,0,1-.56.07c-2.85.38-16.63,2.16-37,3.9-42.63,3.65-114.24,7.16-175.83-2.51-2.26-1.53-4.49-3.09-6.68-4.66l-.91-.69c-.62-.46-1.28-.91-1.91-1.39-.38-2.72-.83-6.37-1.25-10.72-.35-3.44-.66-7.3-.94-11.51-.21-3.2-.38-6.57-.52-10.08-.14-5.12-.21-10.51-.07-16,.14-6.19.52-12.55,1.22-18.81,0-.07,0-.18,0-.25s8.28.77,22.61,1.67c4.69.32,10,.63,15.93.94l8.73.42c13.07.59,28.34,1.11,45.17,1.39,1.25,0,2.51,0,3.79.07h0c2.57,0,5.18.07,7.82.07,2.44,0,4.87,0,7.38,0,2.78,0,5.6,0,8.45,0,.8,0,1.63,0,2.43,0a3,3,0,0,0,.73,0c2.44,0,4.91,0,7.37,0,1.15,0,2.27,0,3.41,0,3.69,0,7.41-.11,11.17-.18,1.28,0,2.57,0,3.86-.1,2.5,0,5-.11,7.58-.18,12.17-.34,24.66-.87,37.28-1.63,10.82-.63,21.74-1.43,32.66-2.44v.87C1040.82,1611.59,1041.76,1657.46,1038.67,1676.52Z"/><circle class="cls-2" cx="595.63" cy="1169.79" r="149.82"/><g class="cls-11"><circle class="cls-2" cx="521.87" cy="1304.75" r="34.81"/></g><path class="cls-12" d="M1390.1,1576.67c-11.69-41.7-21.11-103.29-27.27-151-3.3-25.36-5.67-46.78-7-59.3v0a1,1,0,0,1,0-.27c-.77-7.27-1.19-11.45-1.19-11.45l-16.27,8.91-65.21,35.71-.1.07-.67.39-22.88,12.52L1220.76,1428l-12.66,6.92-1.63.91-10,5.49-3.1,1.71-3.79,2s0,0-.07,0,0,0-.07,0l-89.76,49.28L1014,1541.2l-5.42,58.64h0l-.35,3.92-.24,2.51-.14,1.56-6.75,72.66-2.36,25.42-2.16,23.3-2,21.77q15.54,3.35,31.4,5.67,14.71,2.19,29.7,3.37c.63.07,1.22.18,1.85.21,9,.7,18.18,1.15,27.37,1.36,3.68.1,7.4.14,11.12.14q11.64,0,23.17-.52,8.65-.42,17.28-1.12l7.79-.73c6.12-.62,12.17-1.32,18.19-2.19,3.79-.49,7.58-1.08,11.34-1.7a475.63,475.63,0,0,0,66.11-15.72q21.64-6.78,42.43-15.58c2-.84,4-1.71,6-2.61q9.44-4.07,18.6-8.63c11.93-5.8,23.58-12.2,34.92-19q18.67-11.2,36.24-24c7-5,13.74-10.26,20.38-15.76C1397.16,1620.18,1394.55,1592.5,1390.1,1576.67Zm-278.33,71.65a83.89,83.89,0,0,1,31.26-3.1Z"/><path class="cls-12" d="M1143,1645.22l-31.27,3.1A84,84,0,0,1,1143,1645.22Z"/><g class="cls-11"><circle class="cls-2" cx="790.82" cy="200.88" r="42.6"/></g><g class="cls-11"><circle class="cls-2" cx="1083.21" cy="495.66" r="39.76"/></g><path class="cls-13" d="M1496.48,1302.17a424.29,424.29,0,0,0-38.33-19.65c-33.45-15.13-81-31.34-109.69-18l-1.67,16.32-2.71,26.67c-14,3-81.55,12-226.93-48.13,0,0-22.12-101.9-41.14-113.59-11.86-7.3-33.11-15-47.37-19.75-8.55-2.85-14.6-4.63-14.6-4.63,10.22-32.41,24.44-63.78,42.91-74.56a233.28,233.28,0,0,1,23.41-11.86c38.53-17.11,79.22-25.08,79.22-25.08L1292,990.63s118.17-1.85,145.93,35.33,63.22,149.79,64.79,199.11S1496.48,1302.17,1496.48,1302.17Z"/><g class="cls-14"><path class="cls-2" d="M1395.69,1082.2s17.51,60.55-14.86,121.43-2.31,52.95-2.31,52.95-28.54-2.22-30.06,7.92C1348.46,1264.5,1351.57,1218.81,1395.69,1082.2Z"/></g><path class="cls-13" d="M1344.08,1307.49l-11.34,110.73-2.78,27.34L1049.3,1421l6.09-146.1,1.56-37.46s-7.89-6.12-18.22-12.8a173,173,0,0,0-20.52-11.65c-10.4-4.9-20-7.3-24.42-3a657.62,657.62,0,0,1,15.06-71c1.6-5.81,3.31-11.69,5.15-17.53l0,0s6.05,1.78,14.6,4.63c14.26,4.76,35.51,12.45,47.37,19.75,19,11.69,41.14,113.59,41.14,113.59C1262.53,1319.45,1330.06,1310.48,1344.08,1307.49Z"/><g class="cls-14"><path class="cls-2" d="M1083.21,1034.66l-12.8,27.47s-40.59,35.68-41.77,63.89-9.32,85.13-9.32,85.13a15.3,15.3,0,0,1-1.11,1.81c-10.4-4.9-20-7.3-24.42-3a657.62,657.62,0,0,1,15.06-71c1.6-5.81,3.31-11.69,5.15-17.53l0,0c10.22-32.41,24.44-63.78,42.91-74.56a233.28,233.28,0,0,1,23.41-11.86Z"/></g><path class="cls-12" d="M1143,1645.22l-31.27,3.1A84,84,0,0,1,1143,1645.22Z"/><path class="cls-15" d="M1192.76,677.73S1096,927.16,1096,932c-20.93-5.15-41.42-10.3-60.48-15.27-22.43-5.84-42-20.1-57.52-39.27v0C929.91,666.15,1192.76,677.73,1192.76,677.73Z"/><path class="cls-12" d="M1400.88,1006.27s1.52,27-5.15,75.65v.1l0,0v.14c-6.43,47.16-40.69,114.38-48.9,198.62-1,10.29,23.83,21.45,22.82,32.23a98,98,0,0,1-2.09,12.18c-2.57,11.33-7,25.77-11.69,41.1-.79-7.44-11.75,110.1-11.75,110.1l-330,64.77c5.94-74.6,20.41-70.74,29.66-123.74,1.46-8.45-2-56.38-.9-93.62.87-29.6.27-17.29.31-41,.1-17.8-.07-30.88-.24-34.6a115.2,115.2,0,0,1,.59-11.86,9.79,9.79,0,0,1,.07-1.08c.66-8.52,1.77-20.55,3.09-34.81.21-1.67.35-3.38.52-5.15,6.12-62,25.19-133.26,28.88-166.86.76-7,7.9-7.19,8-7.71V995.32l8.48,16.19,5.8-23.94,1.53-.11,11.54-1,2.33-.18s-.1.77-.2,2.16-.39,3.48-.66,6.16c-1.33,12.62-4,38.29-6.75,67.71-4.66,48.9-9.81,108.16-10.12,135.15-.11,8,.21,13.18,1.08,14.4s4.1,2.4,9.35,3.93c36.9,10.53,149,29,184.81,20.06,5.36-1.32,10.19-6.57,14.54-14.67a96.21,96.21,0,0,0,5-11.06c4.7-12,8.77-27.37,12.24-44.38,4-19.48,7.34-41.18,10-62.53,7.33-58.71,30.84-115.05,30.91-116.89v0S1384.39,981.85,1400.88,1006.27Z"/><path class="cls-16" d="M1110.5,1304.8c31.55,5.7,121.34,20.53,167.59,13.86a10,10,0,0,1,11.39,9.95v52.59a10,10,0,0,1-3.72,7.8l-50.25,40.7a69.13,69.13,0,0,1-91.77-4.22l-44.68-43.55a10,10,0,0,1-3-7.64l2.66-60A10,10,0,0,1,1110.5,1304.8Z"/><g class="cls-14"><path class="cls-2" d="M1146.33,1038.45l-18.39-18.57,34.79-11S1158.2,1032.61,1146.33,1038.45Z"/></g><path class="cls-17" d="M1458.15,1282.52c-5.08,37.42-12.66,80.79-20.27,115.67-9,41.14-58.57,33.42-105.14,20-25.46-7.33-50-16.34-66.49-20-46.75-10.36-164.54-85.2-190.24-97.55-8-3.86-14.89-13.6-20.62-25.77-7.24-15.3-12.7-34.4-16.66-50.26-2.92-11.79-5-21.8-6.4-27.16-4.63-18.4,7.72-24.79,12.34-26.67s-18.5-18.19-30.63-24.94a9.82,9.82,0,0,1-5.19-6.88c-1.49-7.48,4.63-16.77,5.15-17.53l0,0s43,12.7,62,24.38,41.14,113.59,41.14,113.59c145.38,60.09,212.91,51.12,226.93,48.13,1.91-.42,2.82-.7,2.82-.7s-.21-11.12-.11-26l1.67-16.32C1377.15,1251.18,1424.7,1267.39,1458.15,1282.52Z"/><path class="cls-18" d="M1329.94,770.18S1260.55,660.75,1169.57,680,1055.46,761.29,1057,781.93s-6.06,53.29,19,90.29-23.64,47.36-6.68,86-12.4,88.6-12.4,88.6l71-26.94,46.26-14.57s97.93-13.25,117.74-14.68c65-4.69,129,21.61,129,21.61s-52.44-49.11-64.78-100.09S1357.7,824.15,1329.94,770.18Z"/><path class="cls-17" d="M1308.36,1019.49c-21.59,58.08-113.1,73-113.1,73-63.74,3.09-72-43.16-48.93-54,14.82-7,18.92-44,18.68-71.79-.07-15.33-1.5-27.89-3.13-31-4.63-8.77,64.75-120.79,81.73-63.47a102.36,102.36,0,0,0,6.43,16.34c1.46,3,3.06,6,4.8,8.84a201.51,201.51,0,0,0,11.41,17C1291.6,948.86,1324.08,977.2,1308.36,1019.49Z"/><path class="cls-19" d="M1266.25,914.43c-9.18,48.69-24,133.58-102.84,130.62-7.93-.31-13.43-3.16-17.08-6.6,14.82-7,18.92-44,18.68-71.79,9.87-14.57,19-25.31,19-25.31l66-52.8c1.46,3,3.06,6,4.8,8.84A201.51,201.51,0,0,0,1266.25,914.43Z"/><path class="cls-17" d="M1258.24,882s-14,80.88-80.18,95.6c-6.94,1.55-31.62,11.57-40.87-12.33s-15.42-19.28-27-37-16.19-43.18-15.42-54.74,0-17-9.26-23.13-10-27.76-9.25-44.72-6.94-51.66,26.22-56.29,111,30.84,124.13,50.12,16.19,22.36,20.82,13.11,22.36-10.8,22.36-10.8S1296,845,1291.39,855,1258.24,882,1258.24,882Z"/><path class="cls-9" d="M847.29,1006.27l66.31-15.64s117.19,177.55,111,175.16-72.47,0-72.47,0Z"/><path class="cls-17" d="M1057,1237.41s-9.18,212.81-48.34,199.7-34.88-94.84-37.94-112.06c-2.3-12.69,11.44-69.55,18.78-98.28v0c2.57-10.13,4.34-16.73,4.34-16.73a3.24,3.24,0,0,1,.25-.32,1.55,1.55,0,0,1,.28-.24c1.77-1.67,8.48-6,25,1.7a4.67,4.67,0,0,1,.45.18,120.59,120.59,0,0,1,18.44,11.13C1043.77,1226.42,1050,1231.36,1057,1237.41Z"/><path class="cls-17" d="M1001.49,1398.21c-31.09,60.87-49.34-154.73-63.22-180.12s-33.92-75.46-44.72-96.69-24.67-72.85-13.88-76.33,6,11.07,21.59,21.12c15.42,9.92,21.59,29.14,27.76,26.41s30.33,35.68,41.38,53.24-3.34,44,0,51.6,38.22,51.9,38.22,51.9Z"/><path class="cls-16" d="M1162.44,1757.17c-6,.87-12.07,1.57-18.19,2.19l-7.79.73c6.85-49.76,13.39-89.1,16.42-84.4C1155.62,1680,1159.1,1714.43,1162.44,1757.17Z"/><path class="cls-9" d="M1496.48,1302.17s-27.94,12.11-42.3,7.6l4-27.25S1472.19,1287.51,1496.48,1302.17Z"/><path class="cls-19" d="M1458.15,1282.52s-70.64,39.53-114.07,25c0,0,1.15-24.62,4.38-43S1419.83,1262.87,1458.15,1282.52Z"/><path class="cls-19" d="M1038.73,1221.21s-.18.45-.52,1.25c-2.26,4.83-11.52,22.53-29.6,26.88l-19.16-22.57v0c2.57-10.13,4.34-16.73,4.34-16.73a3.24,3.24,0,0,1,.25-.32,1.55,1.55,0,0,1,.28-.24c4.24-3,11.79-3.72,25,1.7a4.67,4.67,0,0,1,.45.18A143.48,143.48,0,0,1,1038.73,1221.21Z"/><path class="cls-19" d="M1025.11,1317.39c-1.14-22.63-6.81-57.74-29-83.6a2.69,2.69,0,0,1,2.83-4.28l25.83,7.44a2.62,2.62,0,0,1,1.79,1.71c2.2,6.7,11.32,38.12,3.85,79A2.68,2.68,0,0,1,1025.11,1317.39Z"/><ellipse class="cls-6" cx="513.21" cy="554.11" rx="44.18" ry="2.19"/><path class="cls-7" d="M602.44,504.88c-3.66,5.46-12.9,18.25-12.9,18.25l8.21,8.37s11.35-16.28,12.71-23.21,2.47,1,.63,4.94-8.9,16.3-9.9,18.36,1.81,5.38,3.36,4.91,9.12-12.74,9.29-15.18,2.19-5,3,.09S605.27,537.22,606,537.49s6.38,1.92,8.21-.88,4.94-11.26,6.38-11.49,1.44,2.86-.3,5.61-3,5.27-1.67,4.68,2.08.56,3.77-.13,10.9-14,10.29-15.56-6.46-6.16-5.79-6.94,7.57,2.61,7.71,5.47c0,0,2.49-2.81,2.41-4.14s4.24-4.3.19-6.74-17.86-5.35-16.89-7.43,9.27-2.69,11.49.06,7-5.16,7.85-6.19-2.33-6.85-12.18-4.52-5.24-1.91-5.24-1.91,5.82-4,14.2,1c0,0,3.13.61,1.75-2.58s1.47-9.46-2.83-8.35-11.13,2.91-12.79.52c0,0,10.29-2.63,11.43-4.49s-8.49-11.54-8.49-11.54-10.9,14.73-12.93,14S621,459.64,623,458.72c0,0-3.1-16.61-19.94-7.46,0,0-6.68,1.22-1.94,18.56l-3-2.72s-10.15-10.21-25-2.55c0,0-4.47,2.77-2.92,10.93,0,0,10.16-8.55,15,.55s-12.93,5.22-16.06,1.86c0,0-4.33,9.73-1.36,14.75,0,0,13.06-7.93,27.6-9.48,0,0,3.71.19-5,2.36s-20.16,11.29-20.16,11.29l5.24,9.73s20.44-16.7,25.16-15.64-.7,1.38-10.66,8.73-12.5,9.49-12.5,9.49l6.85,7.82a1.65,1.65,0,0,0,2.3.14l.08-.08c3.61-3.77,14.15-14.73,15.7-15.81C604.44,499.8,606.1,499.41,602.44,504.88Zm7.63-23.72c.3-.94,7.88-4.21,6.88-1.36S608.85,484.77,610.07,481.16Zm3.88,9.16c-1.36-3.53,3.41-2,3.94-1.47,1.19,1.3-2.55,5-3.94,1.47Zm4.47,5.68c2.74-3.94,7.85-1.72,6.54-.66s-7.76,2.44-6.54.66Zm10,26.66c0,2.33-.94,6.18-1.55,4.46s-2.11-7.15-1.33-8.15,2.94,1.36,2.88,3.69Zm-29.84-49.54c3,1.14,1.89,3.63,1.89,3.63-1.47,1-1.86-.08-3.75-2.33s-1.16-2.44,1.86-1.3Zm5.6,11c2.33,1.3-.64,4.74-.64,4.74-4.63-1.55-1.69-6,.64-4.74Zm4.52,7.35c2.28,1.19-1.8,4.32-1.8,4.32-1.33,1.23-1.33.78-2.5-.49s2-5,4.3-3.83Zm8,17.39c2.11-.83,2.22,4.46-.33,6.38,0,0-3.75,2.27-3,.52s1.25-6.07,3.33-6.9Z"/><path class="cls-7" d="M548.83,438c-4.61,3-15.84,9.74-15.84,9.74l3.27,8.68s14-8.74,17.39-13.51,1.47,1.53-1.22,3.86-12.2,9.49-13.64,10.73-.5,4.55.83,4.66,11.12-6.76,12.12-8.51,3.36-3.11,2.19,1-14,8.32-13.59,8.74,4.1,3.32,6.43,1.77,7.52-6.91,8.69-6.63.11,2.55-2.14,4.08-4,3.05-2.83,3,1.36,1.06,2.86,1,12.9-7.16,13-8.51-2.72-6.52-1.94-6.88,4.74,4.21,3.88,6.35c0,0,2.83-1.33,3.22-2.36s4.63-1.94,2.44-5-11.48-9.35-10-10.57,7.82.75,8.54,3.49,7-1.74,8-2.27.61-5.8-7.52-7-3.24-3-3.24-3,5.71-1.25,10.23,5c0,0,2.11,1.39,2.19-1.41s4.33-6.6.73-7.08-9.3-1.16-9.71-3.44c0,0,8.57,1.11,10,.06s-2.39-11.12-2.39-11.12-13.14,7.71-14.42,6.57,11.87-9.6,13.65-9.68c0,0,3.33-13.31-12.32-11.51,0,0-5.38-1.08-7.79,13.26l-1.28-2.91s-4.07-10.65-17.8-9.41c0,0-4.28.73-5.91,7.27,0,0,10.48-3.33,11,4.91s-11.4,0-12.59-3.41c0,0-6.58,6-6,10.59,0,0,12.45-2,23.8,1.17,0,0,2.72,1.25-4.5.28s-18.88,2.38-18.88,2.38l.58,8.82s20.94-6.32,24.1-4.13-1,.83-10.93,3.33-12.56,3.33-12.56,3.33l2.44,7.87a1.31,1.31,0,0,0,1.64.81.24.24,0,0,0,.11-.06c4-1.72,15.56-6.74,17.08-7.07C552.07,434.82,553.43,435,548.83,438Zm13.78-15.39c.56-.61,7.32-.78,5.6,1.06s-7.73,1.27-5.6-1.06Zm-.22,8c.19-3,3.24-.5,3.44.08C566.27,432,562.22,433.62,562.39,430.6Zm1.39,5.57c3.38-2.1,6.43,1.06,5.1,1.47s-6.63-.52-5.1-1.47ZM562.08,459c-.83,1.72-2.82,4.33-2.69,2.86s.89-6,1.78-6.46,1.75,1.88.91,3.6Zm-5.32-45.82a2.11,2.11,0,0,1,.17,3.27c-1.45.31-1.36-.63-2-2.85s0-2.19,1.83-.42Zm.42,9.9c1.3,1.67-2.11,3.36-2.11,3.36-2.91-2.58.83-5,2.11-3.36Zm.86,6.83c1.27,1.58-2.83,2.69-2.83,2.69-1.39.5-1.25.16-1.7-1.11s3.25-3.17,4.53-1.58Zm0,15.33c1.86,0,.14,4-2.41,4.66,0,0-3.55.59-2.41-.5s3-4.16,4.82-4.16Z"/><path class="cls-8" d="M542.75,509.31c-3.19,2.06-11,6.77-11,6.77l2.28,6s9.76-6.08,12.09-9.4,1,1-.83,2.69-8.49,6.6-9.49,7.46-.33,3.16.58,3.24,7.77-4.71,8.44-5.93,2.32-2.17,1.52.66-9.76,5.8-9.46,6.08,2.86,2.3,4.47,1.25,5.24-4.8,6-4.64,0,1.78-1.47,2.83-2.8,2.11-2,2.08.94.72,2,.72,9-5,9.05-5.9-1.89-4.53-1.36-4.8,3.3,2.94,2.69,4.44c0,0,1.94-.95,2.22-1.64s3.21-1.36,1.72-3.44-8-6.49-7-7.35,5.43.53,5.93,2.41,4.88-1.22,5.55-1.58.42-4.05-5.24-4.88-2.28-2.08-2.28-2.08,4-.86,7.13,3.47c0,0,1.47,1,1.53-1s3-4.61.5-4.91-6.47-.81-6.77-2.39c0,0,6,.78,7,.06s-1.67-7.74-1.67-7.74-9.15,5.38-10,4.55,8.27-6.69,9.49-6.74c0,0,2.33-9.27-8.57-8,0,0-3.75-.75-5.41,9.21l-.89-2s-2.83-7.41-12.37-6.55c0,0-3,.5-4.11,5.05,0,0,7.3-2.3,7.66,3.41s-7.93,0-8.76-2.39c0,0-4.58,4.14-4.22,7.38,0,0,8.65-1.39,16.56.83,0,0,1.88.89-3.14.2S528,498.44,528,498.44l.39,6.16s14.56-4.41,16.76-2.89-.7.59-7.6,2.31-8.71,2.27-8.71,2.27l1.69,5.49a.89.89,0,0,0,1.14.56s0,0,.08,0c2.77-1.19,10.82-4.69,11.9-4.94C545,507.12,545.94,507.26,542.75,509.31Zm9.6-10.7c.39-.42,5.07-.53,3.88.72s-5.38.91-3.88-.72Zm-.17,5.55c.14-2.11,2.25-.34,2.39,0,.3.94-2.5,2.08-2.39,0Zm1,3.88c2.36-1.47,4.5.75,3.55,1s-4.63-.36-3.55-1ZM552,523.93c-.58,1.19-2,3-1.86,2s.61-4.16,1.25-4.49,1.16,1.3.61,2.49ZM548.27,492a1.46,1.46,0,0,1,.11,2.28c-1,.22-.94-.44-1.38-2s0-1.5,1.27-.28Zm.28,6.91c.89,1.17-1.47,2.33-1.47,2.33-2-1.77.58-3.49,1.47-2.33Zm.58,4.74c.89,1.11-2,1.86-2,1.86-1,.36-.88.11-1.16-.77s2.27-2.17,3.13-1.09Zm0,10.68c1.28,0,.09,2.78-1.69,3.25,0,0-2.47.39-1.66-.36s2.1-2.89,3.35-2.89Z"/><path class="cls-8" d="M446.29,557.16c2,7,7.37,23.6,7.37,23.6l-11.2,5.66s-6.41-21-5.55-28.68-2.88.2-2.27,4.88,3.88,20.14,4.21,22.64-3.6,4.91-5.07,3.82-5.25-16.53-4.66-19.11-.61-6-3.14-1,6.77,20.61,6,20.64-7.21-.36-8.19-3.94-1.41-13.45-2.82-14.2-2.42,2.44-1.53,5.91,1.36,6.57.19,5.46-2.33-.16-3.85-1.52-6.69-18.47-5.58-19.89,8.68-4,8.24-5-8.68,0-9.73,2.83c0,0-1.67-3.83-1.17-5.16s-3-6,2-7,20.19,1,19.86-1.5-8.68-6.18-11.9-4.13-5.6-7.94-6.1-9.29,4.63-6.24,14-.23,6.05-.05,6.05-.05-4.72-6.3-15-4.19c0,0-3.44-.5-1-3.33s1.58-10.34,5.66-7.6,10.54,7.1,13,5.22c0,0-9.76-6.49-10.34-8.85s12.51-8.82,12.51-8.82,6.43,19.25,8.79,19.22-3.41-20-5.16-21.61c0,0,8.65-16.06,23-.41,0,0,6.49,3.69-4.05,19.91l3.94-1.75s13.81-6.85,26.71,6.55c0,0,3.72,4.52-.55,12.37,0,0-7.69-12.56-15.7-4.94s11.65,10.16,16,7.83c0,0,1.31,11.67-3.44,15.78,0,0-10.9-13-25.38-19.92,0,0-3.91-1.16,4.36,4.25S482,560.57,482,560.57l-8.6,8.16S457.74,544,452.55,543.32s.25,1.69,8.16,12.92,9.82,14.4,9.82,14.4l-9.65,5.6a1.82,1.82,0,0,1-2.45-.72s0,0,0-.08c-2.5-5.22-9.79-20.42-11.07-22.11C445.87,551.17,444.29,550.17,446.29,557.16Zm-.14-27.32c0-1.08-6.77-7.24-6.66-3.94s6.74,8.1,6.66,3.94Zm-7,8c2.55-3.13-2.88-3.35-3.58-3-1.66.92,1,6.11,3.58,3Zm-6.46,4.25c-1.56-5.08-7.55-4.66-6.55-3.08s7.24,5.35,6.55,3.08Zm-19,23.93c-.72,2.44-1,6.77.16,5.19s4.53-6.66,4.05-7.93-3.49.3-4.21,2.74Zm47-40.33c-3.49.09-3.13,3.08-3.13,3.08,1.19,1.58,1.94.59,4.63-1s2-2.14-1.5-2.06Zm-9.4,9.38c-2.83.5-.89,5.16-.89,5.16,5.3.05,3.72-5.66.89-5.16Zm-7.07,6c-2.72.42.47,5.13.47,5.13,1,1.72,1.13,1.31,2.74.42s-.47-6-3.21-5.55Zm-13.93,15.06c-1.88-1.63-3.74,3.8-1.75,6.72,0,0,3.11,3.71,2.92,1.63s.72-6.71-1.17-8.35Z"/><path class="cls-8" d="M481.37,431c2.53,5.6,9,18.91,9,18.91l-8.68,5.91s-7.91-16.86-8.13-23.35-2.39.47-1.31,4.29,5.69,16.4,6.27,18.42-2.41,4.47-3.77,3.75-6.41-13.23-6.21-15.45-1.25-5-2.72-.5,8.15,16.47,7.49,16.58-6.05.47-7.32-2.41-2.83-11.07-4.11-11.57-1.72,2.28-.55,5.08,1.91,5.33.83,4.52-1.94.11-3.41-.86-7.82-14.7-7-16,6.77-4.25,6.27-5.08-7.27.86-7.79,3.39c0,0-1.86-3-1.58-4.19s-3.22-4.69.8-6.1,17-1.34,16.39-3.36-8-4.22-10.43-2.19-5.63-6-6.21-7.1,3.11-5.72,11.68-1.69,5-.7,5-.7-4.69-4.74-13-1.88c0,0-2.91-.06-1.19-2.67s.05-8.79,3.8-6.93,9.65,4.8,11.51,3c0,0-8.93-4.38-9.71-6.27s9.37-8.68,9.37-8.68,7.72,15.36,9.66,15.09-5.3-16.28-6.94-17.48c0,0,5.27-14.31,19.17-2.8,0,0,5.85,2.39-1,17.06l3.08-1.89s10.7-7.18,23.07,2.61c0,0,3.64,3.36,1.06,10.37,0,0-7.94-9.65-13.71-2.44s11,7.21,14.29,4.8c0,0,2.5,9.6-.94,13.54,0,0-10.68-9.68-23.61-13.93,0,0-3.41-.55,4.16,3.08S511.58,430,511.58,430l-6.19,7.74s-16.09-19-20.5-19,.42,1.38,8.38,9.93,9.93,10.95,9.93,10.95l-7.35,5.69a1.53,1.53,0,0,1-2.14-.36s0,0,0-.06c-2.72-4.1-10.65-16-11.9-17.25C480.29,426.08,478.85,425.41,481.37,431Zm-3.44-22.8c-.14-.89-6.51-5.33-6-2.56s6.63,6,6,2.56Zm-4.88,7.46c1.75-2.89-2.8-2.5-3.33-2.08-1.27.94,1.58,5,3.33,2.08Zm-4.88,4.24c-1.91-4.08-6.85-3.08-5.85-1.89s6.74,3.72,5.85,1.89Zm-12.93,22c-.3,2.1-.05,5.74.75,4.29s2.94-6,2.42-7-2.86.64-3.17,2.75Zm34.31-38.67c-2.91.45-2.21,2.89-2.21,2.89,1.19,1.19,1.69.27,3.74-1.36s1.39-1.94-1.53-1.53Zm-6.68,8.82c-2.3.72-.11,4.38-.11,4.38,4.41-.47,2.41-5.1.11-4.38Zm-5.19,5.74c-2.22.64,1,4.25,1,4.25,1,1.33,1.11,1,2.33.05S479.93,417.17,477.68,417.81Zm-9.79,14.07c-1.77-1.17-2.66,3.57-.64,5.79,0,0,3.06,2.78,2.64,1.06s-.22-5.72-2-6.85Z"/><path class="cls-7" d="M479,483.21c-.77,5.08-2.21,17.28-2.21,17.28l-9,.75s2.08-15.36,4.94-20.13-1.95-.61-2.94,2.58-3.47,14.11-4,15.83-3.8,2.25-4.44,1.17,1.5-12.12,2.67-13.68,1.38-4.07-1.72-1.47-1.72,15.2-2.28,15-4.57-2.11-4.16-4.71,3.05-9.13,2.39-10-2.3.94-2.75,3.44-1.08,4.63-1.5,3.61-1.47-.72-2-2,1.14-13.76,2.3-14.4,6.85-.33,6.88-1.13-5.63-2.3-7.18-.7c0,0,0-2.91.78-3.66s-.14-4.68,3.41-4.07,12.87,5.9,13.39,4.21-3.82-6.29-6.51-5.8-1.28-6.62-1.22-7.62,4.88-2.86,9.2,3.52,4,1.53,4,1.53-1.19-5.33-8.51-6.63c0,0-2.09-1.22.36-2.42s4.1-6.32,5.93-3.46,4.77,7.37,6.94,6.79c0,0-4.44-6.77-4.11-8.46s10.79-2.49,10.79-2.49-1.53,14.2,0,14.81,3.72-13.9,3.08-15.42c0,0,10.4-8.21,15.11,5.71,0,0,3.14,4.1-8.57,11.93l3.08-.11s11-.86,15.45,11.23c0,0,3.11,5.66-2,9.65,0,0-3.32-11.93-10.78-9.07s4.57,9.65,8.09,9.26c0,0-2.63,7.94-6.93,9.38,0,0-3.24-11.32-10.59-19.61,0,0-2.2-1.78,1.58,3.91s5.49,16.89,5.49,16.89l-8,3.08s-2.82-20.22-6-22-.34,1.16,1.47,10.54,2.1,11.92,2.1,11.92l-8,1.14a1.21,1.21,0,0,1-1.36-1v-.14c-.08-4-.3-15.83-.61-17.28C480.54,479.22,479.79,478.17,479,483.21Zm8.08-17.83c.3-.72-2.25-6.49-3.17-4.3s2,7.05,3.17,4.3Zm-7,3.41c2.61-1.38-.88-2.94-1.44-2.85-1.38.16-1.16,4.24,1.44,2.85Zm-5.49,1.08c.5-3.71-3.52-5-3.33-3.71s3.11,5.41,3.33,3.71Zm-19.47,10.65c-1.19,1.39-2.69,4.14-1.44,3.42s4.91-3.17,5-4.11-2.41-.69-3.58.69Zm42.63-14a2.07,2.07,0,0,0-2.94,1.16c.31,1.33,1.11.89,3.33.53s1.89-.83-.39-1.69Zm-8.9,3.66c-2-.42-2.11,3.13-2.11,3.13,3.38,1.45,4.08-2.72,2.08-3.13Zm-6.38,2c-1.91-.44-1.22,3.47-1.22,3.47.11,1.39.36,1.14,1.66,1s1.45-4-.47-4.44ZM469,478.39c-.75-1.55-3.58,1.5-3.14,3.94,0,0,.92,3.24,1.42,1.83s2.44-4.19,1.69-5.77Z"/><path class="cls-7" d="M409.2,486.43c-.88,3.41-2.6,11.62-2.6,11.62l-8.41,1.42s2.41-10.35,5.22-13.76-1.81-.22-2.81,2-3.66,9.65-4.21,10.84-3.61,1.86-4.16,1.22,1.75-8.15,2.88-9.29,1.42-2.83-1.58-.8-2,10.18-2.58,10.12-4.21-.91-3.74-2.69,3.13-6.32,2.52-6.82-2.16.86-2.66,2.55-1.14,3.16-1.53,2.52-1.33-.33-1.85-1.11,1.47-9.18,2.58-9.7,6.4-.92,6.43-1.45-5.19-.94-6.68.25c0,0,.13-1.94.86-2.49s0-3.08,3.3-3,11.81,2.58,12.34,1.42-3.36-3.75-5.91-3.16-1-4.25-.89-4.91,4.64-2.39,8.49,1.38,3.63.61,3.63.61-.94-3.38-7.73-3.52c0,0-1.92-.61.41-1.63s4-4.58,5.66-2.89,4.22,4.38,6.27,3.77c0,0-3.91-4-3.58-5.16S419,461,419,461s-1.85,9.51-.44,9.76,3.88-9.54,3.33-10.46c0,0,10-6.46,13.95,2.25,0,0,2.77,2.38-8.35,8.71l2.89-.39s10.31-1.69,14.06,5.82c0,0,.89,2.47-4,5.63,0,0-.89-6.57-8-3.93s4,5.9,7.26,5.27c0,0-2.69,5.49-6.74,6.87a28.41,28.41,0,0,0-9.29-11.84s-2-.94,1.36,2.41,4.6,10.57,4.6,10.57l-7.57,2.83s-2-13-5-13.89-.36.8,1,6.79,1.61,7.66,1.61,7.66l-7.46,1.55c-.66.14-1.25-.17-1.25-.64.06-2.66.2-10.43,0-11.32C410.73,483.63,410.06,483,409.2,486.43Zm8.07-12.56c.31-.5-1.91-4.05-2.83-2.53s1.61,4.47,2.83,2.53Zm-6.6,3c2.47-1.17-.72-1.86-1.25-1.75C408.12,475.34,408.18,478,410.67,476.84Zm-5.16,1.24c.59-2.49-3.13-2.94-3-2.1s2.72,3.24,3,2.1Zm-18.5,9c-1.16,1.05-2.63,3-1.44,2.39s4.69-2.58,4.8-3.22S388.15,486,387,487.07Zm40.19-13.54a2.46,2.46,0,0,0-2.77,1.09c.25.86,1,.47,3.08,0s1.8-.75-.31-1.09Zm-8.43,3.31c-1.86-.06-2,2.27-2,2.27,3.13.61,3.88-2.19,2-2.27Zm-6,2c-1.74-.08-1.25,2.42-1.25,2.42.06.88.31.72,1.53.47S414.53,478.92,412.75,478.83Zm-12.84,5.44c-.66-.94-3.38,1.36-3.05,2.91,0,0,.78,2,1.28,1.05s2.41-3,1.77-4Z"/><path class="cls-8" d="M510.83,418.92s23.52,43.49,5.46,138.18l-2.77,9.35h5.66S541.25,452.15,510.83,418.92Z"/><path class="cls-8" d="M473.47,495.28c.11.22,34.25,44.16,37.36,66.62h-4.3s-8.13-38.47-35.09-61.82"/><path class="cls-7" d="M516.65,568.64c-.66-.94-12-20.72-4.43-77.49s20.71-64.74,20.71-64.74l3.83-1s-37.36,73.2-19,139.46Z"/><path class="cls-8" d="M536.76,516.05c.08.84-15.67,32.73-17.89,42.66,0,0-3.19,7.74-1.14,6.13a13.19,13.19,0,0,1,5.47-2.05s13-43.93,16.7-46.76S536.76,516.05,536.76,516.05Z"/><path class="cls-7" d="M488.36,530s22.83,17.14,26.66,22.94,3.85,9,3.85,9l-5.35,4.5s-23.11-36.17-31.62-36.34l8.51.17"/><path class="cls-7" d="M526.92,564.23s.83-45.46-13.4-90.64l.22-4.49s20.75,57.19,15.26,94.11S526.92,564.23,526.92,564.23Z"/><path class="cls-9" d="M469.09,554.11s-2.72,65.15,15.08,79.46c0,0,18.84,5.38,57.11,0,0,0,15.59-8.93,15.59-79.49Z"/><path class="cls-10" d="M555.18,592.19s-36.42,5.52-84.79,0c0,0,.89,8.82,1.27,9.54S523.23,607,554,600.62C554,600.65,555.57,594.66,555.18,592.19Z"/><path class="cls-10" d="M469.09,554.11s43.43,4,87.78,0c0,0,.53,20.19-.78,28.18,0,0-48.87,6.74-86.12,0C470,582.29,467.53,567.84,469.09,554.11Z"/><path class="cls-12" d="M693.13,401.68h18v6.88q2.48-7.62,10.89-7.63T732.27,409q2.61-8.07,11-8.08,11,0,11,12.5V436h4.19v1.34H737.73V436h2.62V411.63q0-5.69-1-6.66a1.62,1.62,0,0,0-1.2-.45c-1.45,0-2.72,1-3.82,2.92a14.94,14.94,0,0,0-1.64,7.41V436h2.69v1.34H716.18V436h2.62V411.63q0-5.69-1-6.66a1.62,1.62,0,0,0-1.2-.45q-2.08,0-3.77,3.19a15.93,15.93,0,0,0-1.69,7.59V436h2.7v1.34H693.13V436h4.12V403h-4.12Z"/><path class="cls-12" d="M765,433.26q-4.79-4.78-4.79-13.73t5.13-13.77q5.12-4.83,14.4-4.83t13.85,4.45q4.56,4.46,4.56,13.59,0,19.08-19,19.08Q769.77,438.05,765,433.26Zm18.78-10.7V416.2a51.25,51.25,0,0,0-.78-10.59c-.52-2.22-1.74-3.33-3.63-3.33a3.77,3.77,0,0,0-2.66.93,5.8,5.8,0,0,0-1.46,3.11,56.84,56.84,0,0,0-.67,10.25v5.84q0,8.16.48,9.8a17.22,17.22,0,0,0,1,2.7,3.17,3.17,0,0,0,3.21,1.79q2.93,0,3.82-3.36Q783.75,430.94,783.75,422.56Z"/><path class="cls-12" d="M800.37,401.68h18v6.88a12.39,12.39,0,0,1,3.67-5.53c1.64-1.4,4.14-2.1,7.48-2.1q11.61,0,11.6,12.5V436h4.19v1.34H824.17V436h3.06V411.63q0-4.49-.6-5.8a2.18,2.18,0,0,0-2.17-1.31q-2.38,0-4.22,3.15a14.82,14.82,0,0,0-1.84,7.63V436h3.22v1.34H800.37V436h4.11V403h-4.11Z"/><path class="cls-12" d="M848,438.05v-13.4h.89q2,6.53,5.25,9.14a12.81,12.81,0,0,0,8.23,2.61q7.64,0,7.63-4.86a3.39,3.39,0,0,0-1.87-3.14,25.22,25.22,0,0,0-7.48-2.55,29,29,0,0,1-8.54-3.59q-4.11-2.7-4.11-8.53a12.36,12.36,0,0,1,3.59-9.32,13.19,13.19,0,0,1,9.58-3.48,18.79,18.79,0,0,1,7.56,1.72,6.15,6.15,0,0,0,2.17.6,1.72,1.72,0,0,0,1.27-.52,8.67,8.67,0,0,0,1.27-2h.82v11.45h-.89q-3.82-9.72-11.83-9.73a8.93,8.93,0,0,0-5.23,1.24,3.7,3.7,0,0,0-1.73,3.1,2.68,2.68,0,0,0,.53,1.76c.35.43.62.74.82.94a3.68,3.68,0,0,0,1,.63c.45.23.82.4,1.13.53s.75.29,1.38.48a9.58,9.58,0,0,0,1.39.38,56.43,56.43,0,0,1,7.33,2.21,24.2,24.2,0,0,1,4.26,2.28q4.13,2.85,4.12,9.17t-3.74,9.58q-3.75,3.26-10.25,3.25a19.85,19.85,0,0,1-9-2.17,2.84,2.84,0,0,0-1.42-.6c-1.09,0-2.17.93-3.22,2.77Z"/><path class="cls-12" d="M881.79,426.6V403h-4.12v-1.35h4.12V392l13.92-3.45v13.1h9.73V403h-9.73v25.22a13.73,13.73,0,0,0,.71,5.16,2.87,2.87,0,0,0,3,1.65,4.85,4.85,0,0,0,3.93-2.25,12.94,12.94,0,0,0,2.21-6.13l1.27.14a14.49,14.49,0,0,1-3.29,8.2c-1.79,2-4.77,3-8.91,3s-7.3-.82-9.5-2.47S881.79,430.94,881.79,426.6Z"/><path class="cls-12" d="M912.73,433.07q-4.83-5-4.83-13.84t5.43-13.58q5.43-4.72,13.81-4.72,17,0,16.31,17.06h-21.1v2.92q0,7.33,1.87,11.08c1.25,2.5,3.42,3.74,6.51,3.74q8.68,0,11.38-9.28l1.34.23a15.43,15.43,0,0,1-5.12,8.38q-3.71,3-11.12,3Q917.57,438.05,912.73,433.07Zm9.69-16.57h7.71v-3.67c0-4-.23-6.8-.71-8.27a2.81,2.81,0,0,0-2.84-2.21,3.34,3.34,0,0,0-3.15,2.36q-1,2.35-1,8.12Z"/><path class="cls-12" d="M971.14,403.78c-1.84,0-3.46,1.19-4.86,3.59a16.6,16.6,0,0,0-2.1,8.53V436h5.32v1.34H946.15V436h4.11V403h-4.11v-1.35h18v7.19a10.18,10.18,0,0,1,3.74-5.88,10.31,10.31,0,0,1,6.29-2.06,8.29,8.29,0,0,1,5.73,2,7.22,7.22,0,0,1,2.2,5.62,8.36,8.36,0,0,1-1.65,5.57,6.21,6.21,0,0,1-5,1.95,5.74,5.74,0,0,1-5-2.25q-1.6-2.24-.41-6.21h2.7C974,405.05,973.44,403.78,971.14,403.78Z"/><path class="cls-12" d="M1000,419.72h2.17V414c0-4.73-.26-7.92-.79-9.54a3,3,0,0,0-3-2.43,4.35,4.35,0,0,0-2.43.71,2.23,2.23,0,0,0-1.09,1.95,7.42,7.42,0,0,0,.45,2.5h1.87a10.63,10.63,0,0,1,.6,3.78,4.88,4.88,0,0,1-1.87,3.82,7,7,0,0,1-4.71,1.61q-6.44,0-6.44-6.21,0-9.21,15.64-9.21,8.91,0,12.31,3t3.41,11.12v15.19q0,3.89,2.17,3.89,2.54,0,3-7.71l1.12.08q-.3,6.59-2.46,9.05t-7.11,2.47q-9,0-10.33-5.54a8,8,0,0,1-2.92,4.19,10,10,0,0,1-5.69,1.35q-11.07,0-11.07-9.05,0-5.33,4.23-7.3T1000,419.72Zm-2.59,14.22a1.57,1.57,0,0,0,1.58,1.12c.77,0,1.5-.64,2.17-1.91a11.44,11.44,0,0,0,1-5.28v-7h-.53q-4.63,0-4.64,6.81v1.2A18.76,18.76,0,0,0,997.44,433.94Z"/><rect class="cls-12" x="692.38" y="470.39" width="329.09" height="4.04" rx="2.02"/><rect class="cls-12" x="692.38" y="493.64" width="256.06" height="4.04" rx="2.02"/><rect class="cls-12" x="692.38" y="516.89" width="231.71" height="4.04" rx="2.02"/><rect class="cls-12" x="692.38" y="540.14" width="231.71" height="4.04" rx="2.02"/><rect class="cls-12" x="692.38" y="563.39" width="189.98" height="4.04" rx="2.02"/><rect class="cls-12" x="692.38" y="617.14" width="145.92" height="4.04" rx="1.77"/><circle class="cls-13" cx="822.41" cy="948.38" r="15.89"/><circle class="cls-1" cx="727.55" cy="887.82" r="38.7"/><path class="cls-18" d="M1370.15,892c-3.54-4.13-8.44,0-6.72,5.66,7.3,24,20.85,60.56,36.91,65.48,24.18,7.42,20.05-30.64,1.78-41.17C1392,916.13,1379.34,902.75,1370.15,892Z"/><path class="cls-18" d="M1056.33,996.05a3.23,3.23,0,0,1,5.91,2.32c-3.46,17.33-11.8,40-18.79,46.76-14.83,14.4-25.71,8.6-12.74-10.47C1041.59,1018.64,1043.39,1016.73,1056.33,996.05Z"/><path class="cls-18" d="M1037.7,1004s20.48-7.43,17.27-29.74-1.22-46.59,5.31-59.31,12.45-19.94-.92-32-.65,23.28-12.22,28.48-6.86,43.93-6.32,52.61S1016.26,997.11,1037.7,1004Z"/></g></svg>