<svg width="112" height="112" viewBox="0 0 112 112" fill="none" xmlns="http://www.w3.org/2000/svg">
<path d="M69.1055 72.1928C67.2859 72.1928 65.7729 73.808 65.7729 75.7094C65.7729 77.6312 67.2859 79.2464 69.1055 79.2464C70.8843 79.2464 72.3972 77.6312 72.3972 75.7094C72.3972 73.7875 70.8843 72.1928 69.1055 72.1928ZM69.1055 72.1928C67.2859 72.1928 65.7729 73.808 65.7729 75.7094C65.7729 77.6312 67.2859 79.2464 69.1055 79.2464C70.8843 79.2464 72.3972 77.6312 72.3972 75.7094C72.3972 73.7875 70.8843 72.1928 69.1055 72.1928ZM47.372 45.9409L48.7623 54.303C48.7828 54.4053 48.8646 54.487 48.9872 54.487H56.2249C56.3271 54.487 56.4294 54.4053 56.4498 54.303L57.7788 45.9409H47.372ZM59.0873 42.9149H46.2475C46.0635 42.9149 45.9 43.0785 45.9 43.2625V44.5097C45.9 44.6937 46.0635 44.8572 46.2475 44.8572H59.0873C59.2713 44.8572 59.4348 44.6937 59.4348 44.5097V43.2625C59.4553 43.0581 59.2917 42.9149 59.0873 42.9149ZM69.1055 72.1928C67.2859 72.1928 65.7729 73.808 65.7729 75.7094C65.7729 77.6312 67.2859 79.2669 69.1055 79.2669C70.8843 79.2669 72.3972 77.6517 72.3972 75.7298C72.3972 73.808 70.8843 72.1928 69.1055 72.1928ZM69.1055 72.1928C67.2859 72.1928 65.7729 73.808 65.7729 75.7094C65.7729 77.6312 67.2859 79.2669 69.1055 79.2669C70.8843 79.2669 72.3972 77.6517 72.3972 75.7298C72.3972 73.808 70.8843 72.1928 69.1055 72.1928ZM59.0873 42.9149H46.2475C46.0635 42.9149 45.9 43.0785 45.9 43.2625V44.5097C45.9 44.6937 46.0635 44.8572 46.2475 44.8572H59.0873C59.2713 44.8572 59.4348 44.6937 59.4348 44.5097V43.2625C59.4553 43.0581 59.2917 42.9149 59.0873 42.9149ZM47.372 45.9409L48.7623 54.303C48.7828 54.4053 48.8646 54.487 48.9872 54.487H56.2249C56.3271 54.487 56.4294 54.4053 56.4498 54.303L57.7788 45.9409H47.372ZM47.372 45.9409L48.7623 54.303C48.7828 54.4053 48.8646 54.487 48.9872 54.487H56.2249C56.3271 54.487 56.4294 54.4053 56.4498 54.303L57.7788 45.9409H47.372ZM59.0873 42.9149H46.2475C46.0635 42.9149 45.9 43.0785 45.9 43.2625V44.5097C45.9 44.6937 46.0635 44.8572 46.2475 44.8572H59.0873C59.2713 44.8572 59.4348 44.6937 59.4348 44.5097V43.2625C59.4553 43.0581 59.2917 42.9149 59.0873 42.9149ZM69.1055 72.1928C67.2859 72.1928 65.7729 73.808 65.7729 75.7094C65.7729 77.6312 67.2859 79.2669 69.1055 79.2669C70.8843 79.2669 72.3972 77.6517 72.3972 75.7298C72.3972 73.808 70.8843 72.1928 69.1055 72.1928ZM69.1055 72.1928C67.2859 72.1928 65.7729 73.808 65.7729 75.7094C65.7729 77.6312 67.2859 79.2669 69.1055 79.2669C70.8843 79.2669 72.3972 77.6517 72.3972 75.7298C72.3972 73.808 70.8843 72.1928 69.1055 72.1928ZM59.0873 42.9149H46.2475C46.0635 42.9149 45.9 43.0785 45.9 43.2625V44.5097C45.9 44.6937 46.0635 44.8572 46.2475 44.8572H59.0873C59.2713 44.8572 59.4348 44.6937 59.4348 44.5097V43.2625C59.4553 43.0581 59.2917 42.9149 59.0873 42.9149ZM47.372 45.9409L48.7623 54.303C48.7828 54.4053 48.8646 54.487 48.9872 54.487H56.2249C56.3271 54.487 56.4294 54.4053 56.4498 54.303L57.7788 45.9409H47.372ZM47.372 45.9409L48.7623 54.303C48.7828 54.4053 48.8646 54.487 48.9872 54.487H56.2249C56.3271 54.487 56.4294 54.4053 56.4498 54.303L57.7788 45.9409H47.372ZM59.0873 42.9149H46.2475C46.0635 42.9149 45.9 43.0785 45.9 43.2625V44.5097C45.9 44.6937 46.0635 44.8572 46.2475 44.8572H59.0873C59.2713 44.8572 59.4348 44.6937 59.4348 44.5097V43.2625C59.4553 43.0581 59.2917 42.9149 59.0873 42.9149ZM69.1055 72.1928C67.2859 72.1928 65.7729 73.808 65.7729 75.7094C65.7729 77.6312 67.2859 79.2669 69.1055 79.2669C70.8843 79.2669 72.3972 77.6517 72.3972 75.7298C72.3972 73.808 70.8843 72.1928 69.1055 72.1928ZM69.1055 72.1928C67.2859 72.1928 65.7729 73.808 65.7729 75.7094C65.7729 77.6312 67.2859 79.2669 69.1055 79.2669C70.8843 79.2669 72.3972 77.6517 72.3972 75.7298C72.3972 73.808 70.8843 72.1928 69.1055 72.1928ZM59.0873 42.9149H46.2475C46.0635 42.9149 45.9 43.0785 45.9 43.2625V44.5097C45.9 44.6937 46.0635 44.8572 46.2475 44.8572H59.0873C59.2713 44.8572 59.4348 44.6937 59.4348 44.5097V43.2625C59.4553 43.0581 59.2917 42.9149 59.0873 42.9149ZM48.7623 54.303C48.7828 54.4053 48.8646 54.487 48.9872 54.487H56.2249C56.3271 54.487 56.4294 54.4053 56.4498 54.303L57.7788 45.9409H47.3925L48.7623 54.303ZM56 0C25.0661 0 0 25.0661 0 56C0 86.9339 25.0661 112 56 112C86.9339 112 112 86.9339 112 56C112 25.0661 86.9339 0 56 0ZM46.636 31.1588C47.965 31.0975 49.3552 31.0566 50.6229 31.5268C51.2771 31.7517 51.8496 32.1402 52.3403 32.6309C52.7083 30.0548 53.751 27.6013 55.3866 25.5772C55.5911 25.3114 56.0818 25.475 56.1431 25.7817C56.3476 26.7017 56.5111 27.6218 56.6543 28.5418C56.7769 29.3596 56.8792 30.1774 56.9609 31.0157C57.0223 31.7517 57.1041 32.5082 56.92 33.2238C56.7769 33.8781 56.3476 34.4505 55.7547 34.7572C55.2026 35.0639 54.5279 35.0434 53.9963 34.7163C53.7919 34.5936 53.7101 34.3074 53.8328 34.0825C53.9555 33.8576 54.2417 33.7963 54.4461 33.9189C54.8551 34.2052 55.4071 34.0007 55.7342 33.6123C56.2045 33.0398 56.1227 32.1402 56.0613 31.4451C55.9387 29.9525 55.7342 28.46 55.448 26.988C54.0372 29.0529 53.2399 31.4451 53.1172 33.9394C53.1172 34.1643 52.9536 34.3483 52.7287 34.3892C52.5038 34.4096 52.2994 34.287 52.2176 34.0621C51.87 33.2034 51.0113 32.6309 50.1731 32.3447C49.2326 32.038 48.2103 32.0175 47.2289 32.038C47.9854 34.0621 50.1935 35.5341 52.3812 35.2275C52.6265 35.1661 52.8719 35.3092 52.9536 35.575C52.9536 35.6159 52.9741 35.6364 52.9741 35.6773C52.9741 37.2516 52.9741 38.8054 52.9945 40.3797C52.9945 40.9726 52.0745 40.9726 52.0745 40.3797C52.0745 38.969 52.0745 37.5582 52.054 36.1679C51.6042 36.1884 51.1544 36.1475 50.7251 36.0657C48.5783 35.6159 46.6769 33.8985 46.2066 31.7313C46.1453 31.4859 46.3089 31.2406 46.5542 31.1793C46.5747 31.1793 46.5951 31.1588 46.636 31.1588ZM32.8967 71.9883L30.1774 80.0643C30.0548 80.4323 29.7072 80.6776 29.3187 80.6776H28.8894C28.5009 80.6776 28.1533 80.4323 28.0307 80.0438L26.7017 75.9956C26.5586 75.5254 26.0475 75.2596 25.5568 75.4027C25.2705 75.4845 25.0661 75.7094 24.9639 75.9956L23.6349 80.0643C23.5122 80.4323 23.1647 80.6981 22.7762 80.6981H22.3468C21.9584 80.6981 21.6108 80.4527 21.4881 80.0847L18.7689 72.0088C18.6053 71.5385 18.8711 71.0274 19.3414 70.8638C19.4436 70.8229 19.5254 70.8229 19.6276 70.8229C20.0161 70.8229 20.3841 71.0887 20.4863 71.4567L21.7335 75.4845C21.8766 75.9547 22.3877 76.2205 22.8784 76.0774C23.1647 75.9956 23.3691 75.7707 23.4713 75.5049L24.8207 71.4363C24.9434 71.0683 25.291 70.8229 25.6794 70.8229H25.9861C26.3746 70.8229 26.7222 71.0683 26.8448 71.4363L28.1942 75.4845C28.3578 75.9547 28.8689 76.2205 29.3392 76.057C29.6254 75.9547 29.8299 75.7503 29.9116 75.464L31.1384 71.4567C31.2815 70.9865 31.7926 70.7003 32.2629 70.8434C32.6513 70.966 32.9171 71.3136 32.9171 71.7225C32.9376 71.8043 32.9171 71.8861 32.8967 71.9883ZM40.9113 79.7371C40.9317 80.2687 40.5228 80.6981 40.0117 80.739C39.4801 80.7594 39.0508 80.3505 39.0099 79.8394C39.0099 79.8189 39.0099 79.778 39.0099 79.7576V71.743C38.9894 71.2114 39.3983 70.782 39.9095 70.7411C40.441 70.7207 40.8704 71.1296 40.9113 71.6407C40.9113 71.6612 40.9113 71.7021 40.9113 71.7225V79.7371ZM40.8704 68.6557C40.5024 69.1668 39.7868 69.2691 39.2961 68.9011C38.8054 68.533 38.6827 67.8175 39.0508 67.3268C39.2757 67.0405 39.6232 66.8565 39.9708 66.877C40.8295 66.8565 41.4838 67.8788 40.8704 68.6557ZM49.3552 79.7371C49.3552 80.2483 48.9259 80.6776 48.4148 80.6776C47.9036 80.6776 47.4743 80.2483 47.4743 79.7371V68.2264C47.4743 67.7152 47.8832 67.2859 48.4148 67.2859C48.9259 67.2859 49.3552 67.6948 49.3552 68.2264V79.7371ZM57.8196 79.7371C57.8196 80.2483 57.4107 80.6776 56.8792 80.6776C56.368 80.6776 55.9387 80.2687 55.9387 79.7371V68.2264C55.9387 67.7152 56.368 67.2859 56.8792 67.2859C57.3903 67.2859 57.8196 67.7152 57.8196 68.2264V79.7371ZM60.5389 44.5097C60.5389 45.2457 59.9664 45.8591 59.2304 45.9409L57.8605 54.5279C57.7379 55.3457 57.0223 55.9387 56.2045 55.9387H48.9668C48.149 55.9387 47.4334 55.3457 47.3107 54.5279L45.8591 45.8795C45.2253 45.716 44.7959 45.1435 44.7959 44.4892V43.2421C44.7959 42.4447 45.4502 41.7904 46.2475 41.7904H59.0873C59.8846 41.7904 60.5389 42.4447 60.5389 43.2421V44.5097ZM60.8456 29.605C60.6002 29.8503 60.2322 29.9321 59.9255 29.789C59.5984 29.6663 59.3939 29.3392 59.3939 28.9916V27.6422C58.4943 27.5604 57.7788 26.8039 57.7788 25.9043V20.8543C57.7788 19.8934 58.5557 19.096 59.5371 19.096H71.1296C72.0905 19.096 72.8879 19.8934 72.8879 20.8543V25.9043C72.8879 26.8653 72.111 27.6627 71.1296 27.6627H62.7879L60.8456 29.605ZM69.1055 80.9025C66.2636 80.9025 63.8715 78.5308 63.8715 75.7094C63.8715 72.8879 66.2636 70.5367 69.1055 70.5367C71.9679 70.4754 74.3395 72.7448 74.3804 75.6072C74.4418 78.4695 72.1723 80.8412 69.31 80.8821C69.2486 80.9025 69.1668 80.9025 69.1055 80.9025ZM93.64 71.9679L90.9208 80.0438C90.7981 80.4118 90.4505 80.6572 90.0621 80.6572H89.6327C89.2442 80.6572 88.8967 80.4118 88.774 80.0234L87.4655 75.9752C87.3019 75.5049 86.7908 75.2391 86.3206 75.3823C86.0343 75.464 85.8299 75.6889 85.7276 75.9752L84.3987 80.0438C84.276 80.4118 83.9284 80.6776 83.54 80.6776H83.1106C82.7222 80.6776 82.3746 80.4323 82.2519 80.0643L79.5327 71.9883C79.3691 71.5181 79.6349 71.0069 80.1051 70.8434C80.2074 70.8025 80.2892 70.8025 80.3914 70.8025C80.7799 70.8025 81.1479 71.0683 81.2501 71.4363L82.4973 75.464C82.6404 75.9343 83.1515 76.2001 83.6422 76.057C83.9284 75.9752 84.1329 75.7503 84.2351 75.4845L85.605 71.4158C85.7276 71.0478 86.0752 70.8025 86.4637 70.8025H86.7704C87.1588 70.8025 87.5064 71.0478 87.6291 71.4158L88.9785 75.464C89.142 75.9343 89.6532 76.2001 90.1234 76.0365C90.4096 75.9343 90.6141 75.7298 90.6959 75.4436L91.9226 71.4363C92.0657 70.966 92.5769 70.6798 93.0471 70.8229C93.4356 70.9456 93.7013 71.2932 93.7013 71.7021C93.6809 71.7839 93.6605 71.8861 93.64 71.9679ZM71.9679 25.9043V20.8543C71.9679 20.3841 71.5999 20.0161 71.1296 20.0161H59.5371C59.0668 20.0161 58.6988 20.4045 58.6988 20.8543V25.9043C58.6988 26.3133 59.0055 26.6608 59.3939 26.7426C59.4348 26.7426 59.4962 26.7631 59.5371 26.7631H60.314V28.8894L61.5203 27.6831L62.4403 26.7631H71.1501C71.5794 26.7426 71.9679 26.3746 71.9679 25.9043ZM69.1055 72.2132C67.2859 72.2132 65.7729 73.8284 65.7729 75.7298C65.7729 77.6313 67.2859 79.2669 69.1055 79.2669C70.8843 79.2669 72.3972 77.6517 72.3972 75.7298C72.3972 73.808 70.8843 72.1928 69.1055 72.2132ZM59.0873 42.9149H46.268C46.084 42.9149 45.9204 43.0785 45.9204 43.2625V44.5097C45.9204 44.6937 46.084 44.8572 46.268 44.8572H59.0873C59.2713 44.8572 59.4348 44.6937 59.4348 44.5097V43.2625C59.4553 43.0785 59.2917 42.9149 59.0873 42.9149C59.1077 42.9149 59.1077 42.9149 59.0873 42.9149ZM48.7623 54.303C48.7828 54.4053 48.8646 54.487 48.9872 54.487H56.2249C56.3271 54.487 56.4294 54.4053 56.4498 54.303L57.7788 45.9409H47.3925L48.7623 54.303ZM47.372 45.9409L48.7623 54.303C48.7828 54.4053 48.8646 54.487 48.9872 54.487H56.2249C56.3271 54.487 56.4294 54.4053 56.4498 54.303L57.7788 45.9409H47.372ZM59.0873 42.9149H46.2475C46.0635 42.9149 45.9 43.0785 45.9 43.2625V44.5097C45.9 44.6937 46.0635 44.8572 46.2475 44.8572H59.0873C59.2713 44.8572 59.4348 44.6937 59.4348 44.5097V43.2625C59.4553 43.0581 59.2917 42.9149 59.0873 42.9149ZM69.1055 72.1928C67.2859 72.1928 65.7729 73.808 65.7729 75.7094C65.7729 77.6312 67.2859 79.2669 69.1055 79.2669C70.8843 79.2669 72.3972 77.6517 72.3972 75.7298C72.3972 73.808 70.8843 72.1928 69.1055 72.1928ZM69.1055 72.1928C67.2859 72.1928 65.7729 73.808 65.7729 75.7094C65.7729 77.6312 67.2859 79.2669 69.1055 79.2669C70.8843 79.2669 72.3972 77.6517 72.3972 75.7298C72.3972 73.808 70.8843 72.1928 69.1055 72.1928ZM59.0873 42.9149H46.2475C46.0635 42.9149 45.9 43.0785 45.9 43.2625V44.5097C45.9 44.6937 46.0635 44.8572 46.2475 44.8572H59.0873C59.2713 44.8572 59.4348 44.6937 59.4348 44.5097V43.2625C59.4553 43.0581 59.2917 42.9149 59.0873 42.9149ZM47.372 45.9409L48.7623 54.303C48.7828 54.4053 48.8646 54.487 48.9872 54.487H56.2249C56.3271 54.487 56.4294 54.4053 56.4498 54.303L57.7788 45.9409H47.372ZM47.372 45.9409L48.7623 54.303C48.7828 54.4053 48.8646 54.487 48.9872 54.487H56.2249C56.3271 54.487 56.4294 54.4053 56.4498 54.303L57.7788 45.9409H47.372ZM59.0873 42.9149H46.2475C46.0635 42.9149 45.9 43.0785 45.9 43.2625V44.5097C45.9 44.6937 46.0635 44.8572 46.2475 44.8572H59.0873C59.2713 44.8572 59.4348 44.6937 59.4348 44.5097V43.2625C59.4553 43.0581 59.2917 42.9149 59.0873 42.9149ZM69.1055 72.1928C67.2859 72.1928 65.7729 73.808 65.7729 75.7094C65.7729 77.6312 67.2859 79.2669 69.1055 79.2669C70.8843 79.2669 72.3972 77.6517 72.3972 75.7298C72.3972 73.808 70.8843 72.1928 69.1055 72.1928ZM69.1055 72.1928C67.2859 72.1928 65.7729 73.808 65.7729 75.7094C65.7729 77.6312 67.2859 79.2669 69.1055 79.2669C70.8843 79.2669 72.3972 77.6517 72.3972 75.7298C72.3972 73.808 70.8843 72.1928 69.1055 72.1928ZM59.0873 42.9149H46.2475C46.0635 42.9149 45.9 43.0785 45.9 43.2625V44.5097C45.9 44.6937 46.0635 44.8572 46.2475 44.8572H59.0873C59.2713 44.8572 59.4348 44.6937 59.4348 44.5097V43.2625C59.4553 43.0581 59.2917 42.9149 59.0873 42.9149ZM47.372 45.9409L48.7623 54.303C48.7828 54.4053 48.8646 54.487 48.9872 54.487H56.2249C56.3271 54.487 56.4294 54.4053 56.4498 54.303L57.7788 45.9409H47.372ZM47.372 45.9409L48.7623 54.303C48.7828 54.4053 48.8646 54.487 48.9872 54.487H56.2249C56.3271 54.487 56.4294 54.4053 56.4498 54.303L57.7788 45.9409H47.372ZM59.0873 42.9149H46.2475C46.0635 42.9149 45.9 43.0785 45.9 43.2625V44.5097C45.9 44.6937 46.0635 44.8572 46.2475 44.8572H59.0873C59.2713 44.8572 59.4348 44.6937 59.4348 44.5097V43.2625C59.4553 43.0581 59.2917 42.9149 59.0873 42.9149ZM69.1055 72.1928C67.2859 72.1928 65.7729 73.808 65.7729 75.7094C65.7729 77.6312 67.2859 79.2669 69.1055 79.2669C70.8843 79.2669 72.3972 77.6517 72.3972 75.7298C72.3972 73.808 70.8843 72.1928 69.1055 72.1928ZM69.1055 72.1928C67.2859 72.1928 65.7729 73.808 65.7729 75.7094C65.7729 77.6312 67.2859 79.2669 69.1055 79.2669C70.8843 79.2669 72.3972 77.6517 72.3972 75.7298C72.3972 73.808 70.8843 72.1928 69.1055 72.1928ZM47.372 45.9409L48.7623 54.303C48.7828 54.4053 48.8646 54.487 48.9872 54.487H56.2249C56.3271 54.487 56.4294 54.4053 56.4498 54.303L57.7788 45.9409H47.372ZM59.0873 42.9149H46.2475C46.0635 42.9149 45.9 43.0785 45.9 43.2625V44.5097C45.9 44.6937 46.0635 44.8572 46.2475 44.8572H59.0873C59.2713 44.8572 59.4348 44.6937 59.4348 44.5097V43.2625C59.4553 43.0581 59.2917 42.9149 59.0873 42.9149ZM69.1055 72.1928C67.2859 72.1928 65.7729 73.808 65.7729 75.7094C65.7729 77.6312 67.2859 79.2669 69.1055 79.2669C70.8843 79.2669 72.3972 77.6517 72.3972 75.7298C72.3972 73.808 70.8843 72.1928 69.1055 72.1928ZM69.1055 72.1928C67.2859 72.1928 65.7729 73.808 65.7729 75.7094C65.7729 77.6312 67.2859 79.2669 69.1055 79.2669C70.8843 79.2669 72.3972 77.6517 72.3972 75.7298C72.3972 73.808 70.8843 72.1928 69.1055 72.1928Z" fill="#2DDA93"/>
</svg>
